<?xml version="1.0" encoding="UTF-8"?>
<svg width="139px" height="139px" viewBox="0 0 139 139" version="1.1" xmlns="http://www.w3.org/2000/svg" xmlns:xlink="http://www.w3.org/1999/xlink">
    <title>cart</title>
    <g id="Page-1" stroke="none" stroke-width="1" fill="none" fill-rule="evenodd">
        <g id="cart" fill-rule="nonzero">
            <path d="M52.125,136.799167 C46.9530417,136.799167 42.7425,132.588625 42.7425,127.416667 C42.7425,122.244708 46.9530417,118.034167 52.125,118.034167 C57.2969583,118.034167 61.5075,122.244708 61.5075,127.416667 C61.5075,132.588625 57.2969583,136.799167 52.125,136.799167 Z" id="Path" fill="#546E7A"></path>
            <path d="M110.041667,136.799167 C104.869708,136.799167 100.659167,132.588625 100.659167,127.416667 C100.659167,122.244708 104.869708,118.034167 110.041667,118.034167 C115.213625,118.034167 119.424167,122.244708 119.424167,127.416667 C119.424167,132.588625 115.213625,136.799167 110.041667,136.799167 Z" id="Path" fill="#546E7A"></path>
            <path d="M74.5677083,99.0375 L35.4739583,99.0375 C33.3136667,99.0375 31.5645833,97.2884167 31.5645833,95.128125 L31.5645833,9.121875 C31.5645833,6.96158333 33.3136667,5.2125 35.4739583,5.2125 L74.5677083,5.2125 C76.728,5.2125 78.4770833,6.96158333 78.4770833,9.121875 L78.4770833,95.128125 C78.4770833,97.2884167 76.728,99.0375 74.5677083,99.0375 Z" id="Path" fill="#FFA726"></path>
            <path d="M123.796875,99.6919583 L84.703125,99.6919583 C82.5428333,99.6919583 80.79375,97.942875 80.79375,95.7825833 L80.79375,60.5982083 C80.79375,58.4379167 82.5428333,56.6888333 84.703125,56.6888333 L123.796875,56.6888333 C125.957167,56.6888333 127.70625,58.4379167 127.70625,60.5982083 L127.70625,95.7825833 C127.70625,97.9370833 125.957167,99.6919583 123.796875,99.6919583 Z" id="Path" fill="#FFCC80"></path>
            <path d="M115.978125,54.80075 L92.521875,54.80075 C90.3615833,54.80075 88.6125,53.0516667 88.6125,50.891375 L88.6125,28.7440417 C88.6125,26.58375 90.3615833,24.8346667 92.521875,24.8346667 L115.978125,24.8346667 C118.138417,24.8346667 119.8875,26.58375 119.8875,28.7440417 L119.8875,50.8971667 C119.8875,53.0516667 118.138417,54.80075 115.978125,54.80075 Z" id="Path" fill="#FFB74D"></path>
            <path d="M134.250833,118.729167 L30.40625,118.711792 C21.6202917,118.711792 14.4791667,111.570667 14.4791667,102.784708 L14.4791667,44.8854167 C14.4791667,44.0861667 13.8305,43.4375 13.03125,43.4375 L4.34375,43.4375 C1.946,43.4375 0,41.4915 0,39.09375 C0,36.696 1.946,34.75 4.34375,34.75 L13.03125,34.75 C18.6202083,34.75 23.1666667,39.2964583 23.1666667,44.8854167 L23.1666667,102.784708 C23.1666667,106.775167 26.4157917,110.024292 30.40625,110.024292 L134.250833,110.041667 C136.648583,110.041667 138.594583,111.987667 138.594583,114.385417 C138.594583,116.783167 136.648583,118.729167 134.250833,118.729167 Z" id="Path" fill="#000000"></path>
            <path d="M52.125,139 C45.7367917,139 40.5416667,133.804875 40.5416667,127.416667 C40.5416667,121.028458 45.7367917,115.833333 52.125,115.833333 C58.5132083,115.833333 63.7083333,121.028458 63.7083333,127.416667 C63.7083333,133.804875 58.5132083,139 52.125,139 Z M52.125,124.520833 C50.5322917,124.520833 49.2291667,125.818167 49.2291667,127.416667 C49.2291667,129.015167 50.5322917,130.3125 52.125,130.3125 C53.7177083,130.3125 55.0208333,129.015167 55.0208333,127.416667 C55.0208333,125.818167 53.7177083,124.520833 52.125,124.520833 Z" id="Shape" fill="#000000"></path>
            <path d="M110.041667,139 C103.653458,139 98.4583333,133.804875 98.4583333,127.416667 C98.4583333,121.028458 103.653458,115.833333 110.041667,115.833333 C116.429875,115.833333 121.625,121.028458 121.625,127.416667 C121.625,133.804875 116.429875,139 110.041667,139 Z M110.041667,124.520833 C108.448958,124.520833 107.145833,125.818167 107.145833,127.416667 C107.145833,129.015167 108.448958,130.3125 110.041667,130.3125 C111.634375,130.3125 112.9375,129.015167 112.9375,127.416667 C112.9375,125.818167 111.634375,124.520833 110.041667,124.520833 Z" id="Shape" fill="#000000"></path>
            <path d="M79.6354167,104.25 L33.3020833,104.25 C30.9043333,104.25 28.9583333,102.304 28.9583333,99.90625 L28.9583333,4.34375 C28.9583333,1.946 30.9043333,0 33.3020833,0 L79.6354167,0 C82.0331667,0 83.9791667,1.946 83.9791667,4.34375 L83.9791667,99.90625 C83.9791667,102.304 82.0331667,104.25 79.6354167,104.25 Z M37.6458333,95.5625 L75.2916667,95.5625 L75.2916667,8.6875 L37.6458333,8.6875 L37.6458333,95.5625 Z" id="Shape" fill="#000000"></path>
            <path d="M128.864583,104.25 L79.6354167,104.25 C77.2376667,104.25 75.2916667,102.304 75.2916667,99.90625 L75.2916667,56.46875 C75.2916667,54.071 77.2376667,52.125 79.6354167,52.125 L128.864583,52.125 C131.262333,52.125 133.208333,54.071 133.208333,56.46875 L133.208333,99.90625 C133.208333,102.304 131.262333,104.25 128.864583,104.25 Z M83.9791667,95.5625 L124.520833,95.5625 L124.520833,60.8125 L83.9791667,60.8125 L83.9791667,95.5625 Z" id="Shape" fill="#000000"></path>
            <path d="M123.072917,60.8125 L91.21875,60.8125 C88.821,60.8125 86.875,58.8665 86.875,56.46875 L86.875,27.5104167 C86.875,25.1126667 88.821,23.1666667 91.21875,23.1666667 L123.072917,23.1666667 C125.470667,23.1666667 127.416667,25.1126667 127.416667,27.5104167 L127.416667,56.46875 C127.416667,58.8665 125.470667,60.8125 123.072917,60.8125 Z M95.5625,52.125 L118.729167,52.125 L118.729167,31.8541667 L95.5625,31.8541667 L95.5625,52.125 Z" id="Shape" fill="#000000"></path>
        </g>
    </g>
</svg>