<?xml version="1.0" encoding="UTF-8"?>
<svg width="141px" height="141px" viewBox="0 0 141 141" version="1.1" xmlns="http://www.w3.org/2000/svg" xmlns:xlink="http://www.w3.org/1999/xlink">
    <title>packages</title>
    <g id="Page-1" stroke="none" stroke-width="1" fill="none" fill-rule="evenodd">
        <g id="packages" fill-rule="nonzero">
            <path d="M69.061084,54.1775977 L28.0647832,54.1775977 L28.0647832,3.64920117 C28.0647832,2.80375195 28.7502305,2.11858008 29.5954043,2.11858008 L67.5304629,2.11858008 C68.3759121,2.11858008 69.061084,2.80402734 69.061084,3.64920117 L69.061084,54.1775977 Z" id="Path" fill="#EAB14D"></path>
            <path d="M64.3207852,2.11858008 L64.3207852,54.1775977 L69.0613594,54.1775977 L69.0613594,3.64920117 C69.0613594,2.80375195 68.3759121,2.11858008 67.5307383,2.11858008 L64.3207852,2.11858008 Z" id="Path" fill="#E49542"></path>
            <path d="M51.1549102,13.9130098 L45.970957,13.9130098 C45.2901914,13.9130098 44.7383086,13.361127 44.7383086,12.6803613 L44.7383086,2.11858008 L52.387834,2.11858008 L52.387834,12.6806367 C52.3875586,13.361127 51.8356758,13.9130098 51.1549102,13.9130098 Z" id="Path" fill="#DF6B57"></path>
            <path d="M116.129197,99.2835527 L53.3035078,99.2835527 L53.3035078,34.9002539 L114.598576,34.9002539 C115.444025,34.9002539 116.129197,35.5857012 116.129197,36.430875 L116.129197,99.2835527 Z" id="Path" fill="#F1CB86"></path>
            <path d="M111.388898,34.9002539 L111.388898,99.2835527 L116.129473,99.2835527 L116.129473,36.4311504 C116.129473,35.5857012 115.444025,34.9002539 114.598852,34.9002539 L111.388898,34.9002539 L111.388898,34.9002539 Z" id="Path" fill="#ECBE6B"></path>
            <path d="M87.3084668,46.6946836 L82.1242383,46.6946836 C81.4434727,46.6946836 80.8915898,46.1428008 80.8915898,45.4620352 L80.8915898,34.9002539 L88.5411152,34.9002539 L88.5411152,45.4623105 C88.5411152,46.1428008 87.9892324,46.6946836 87.3084668,46.6946836 Z" id="Path" fill="#365E7D"></path>
            <path d="M76.1086055,138.881695 L2.06542969,138.881695 L2.06542969,89.7985488 C2.06542969,88.9530996 2.75087695,88.2679277 3.59605078,88.2679277 L76.1086055,88.2679277 L76.1086055,138.881695 Z" id="Path" fill="#EAB14D"></path>
            <polygon id="Path" fill="#E49542" points="71.3683066 88.2679277 76.1088809 88.2679277 76.1088809 138.881695 71.3683066 138.881695"></polygon>
            <path d="M41.6789941,100.062357 L36.4947656,100.062357 C35.814,100.062357 35.2621172,99.5104746 35.2621172,98.829709 L35.2621172,88.2676523 L42.9116426,88.2676523 L42.9116426,98.829709 C42.9116426,99.5104746 42.3597598,100.062357 41.6789941,100.062357 L41.6789941,100.062357 Z" id="Path" fill="#365E7D"></path>
            <path d="M138.93457,138.881695 L76.1086055,138.881695 L76.1086055,99.2835527 L137.403674,99.2835527 C138.249123,99.2835527 138.93457,99.969 138.93457,100.814174 L138.93457,138.881695 L138.93457,138.881695 Z" id="Path" fill="#EAB14D"></path>
            <path d="M134.193996,99.2835527 L134.193996,138.881695 L138.93457,138.881695 L138.93457,100.814449 C138.93457,99.969 138.249123,99.2835527 137.403949,99.2835527 L134.193996,99.2835527 L134.193996,99.2835527 Z" id="Path" fill="#E49542"></path>
            <path d="M110.113564,111.077982 L104.929336,111.077982 C104.24857,111.077982 103.696687,110.5261 103.696687,109.845334 L103.696687,99.2832773 L111.346213,99.2832773 L111.346213,109.845334 C111.346213,110.5261 110.79433,111.077982 110.113564,111.077982 Z" id="Path" fill="#DF6B57"></path>
            <path d="M53.3035078,88.2679277 L12.307207,88.2679277 L12.307207,55.7084941 C12.307207,54.8630449 12.9926543,54.177873 13.8378281,54.177873 L53.3035078,54.177873 L53.3035078,88.2679277 Z" id="Path" fill="#F1CB86"></path>
            <polygon id="Path" fill="#ECBE6B" points="48.5629336 54.1775977 53.3035078 54.1775977 53.3035078 88.2679277 48.5629336 88.2679277"></polygon>
            <path d="M35.397334,65.9720273 L30.2131055,65.9720273 C29.5323398,65.9720273 28.980457,65.4201445 28.980457,64.7393789 L28.980457,54.1775977 L36.6299824,54.1775977 L36.6299824,64.7396543 C36.6299824,65.4201445 36.0780996,65.9720273 35.397334,65.9720273 Z" id="Path" fill="#DF6B57"></path>
            <path d="M137.403949,97.2178477 L118.194902,97.2178477 L118.194902,65.6184258 C118.194902,64.4774824 117.270416,63.5529961 116.129473,63.5529961 C114.988529,63.5529961 114.064043,64.4774824 114.064043,65.6184258 L114.064043,97.2178477 C109.834043,97.2178477 82.6962246,97.2178477 78.1743105,97.2178477 L78.1743105,88.2676523 C78.1743105,87.126709 77.2498242,86.2022227 76.1088809,86.2022227 L55.3689375,86.2022227 C55.3689375,83.6625703 55.3689375,41.1791602 55.3689375,36.9654082 L78.8264355,36.9654082 L78.8264355,45.4623105 C78.8264355,47.2809902 80.305834,48.7603887 82.1245137,48.7603887 L87.3084668,48.7603887 C89.1271465,48.7603887 90.6068203,47.2809902 90.6068203,45.4623105 L90.6068203,36.9654082 L114.064318,36.9654082 L114.064318,57.3605625 C114.064318,58.5015059 114.988805,59.4259922 116.129748,59.4259922 C117.270691,59.4259922 118.195178,58.5015059 118.195178,57.3605625 L118.195178,36.430875 C118.195178,34.4480625 116.581939,32.8345488 114.598852,32.8345488 C104.460621,32.8345488 80.5622227,32.8345488 71.1270645,32.8345488 L71.1270645,3.64920117 C71.1270645,1.66638867 69.5138262,0.052875 67.5307383,0.052875 L29.5956797,0.052875 C27.6125918,0.052875 25.9993535,1.66611328 25.9993535,3.64920117 L25.9993535,16.707123 C25.9993535,17.8480664 26.9241152,18.7725527 28.0647832,18.7725527 C29.2054512,18.7725527 30.1302129,17.8480664 30.1302129,16.707123 L30.1302129,4.18373437 L42.6728789,4.18373437 L42.6728789,12.6806367 C42.6728789,14.4993164 44.1522773,15.9787148 45.970957,15.9787148 L51.1551855,15.9787148 C52.9738652,15.9787148 54.4532637,14.4993164 54.4532637,12.6806367 L54.4532637,4.18373437 L66.9959297,4.18373437 L66.9959297,32.8345488 L53.3037832,32.8345488 C52.1631152,32.8345488 51.2383535,33.7590352 51.2383535,34.8999785 L51.2383535,52.1118926 L30.1304883,52.1118926 L30.1304883,24.9649863 C30.1304883,23.824043 29.2057266,22.8995566 28.0650586,22.8995566 C26.9243906,22.8995566 25.9996289,23.824043 25.9996289,24.9649863 L25.9996289,52.112168 L13.8378281,52.112168 C11.8547402,52.112168 10.241502,53.7251309 10.241502,55.7082187 L10.241502,86.2022227 L3.59605078,86.2022227 C1.61323828,86.2022227 -1.56541446e-14,87.8154609 -1.56541446e-14,89.7985488 L-1.56541446e-14,138.88142 C-1.56541446e-14,140.022363 0.924761719,140.94685 2.06542969,140.94685 L23.9358516,140.94685 C25.0765195,140.94685 26.0012812,140.022363 26.0012812,138.88142 C26.0012812,137.740477 25.0765195,136.81599 23.9358516,136.81599 L4.13085937,136.81599 L4.13085937,90.333082 L33.1969629,90.333082 L33.1969629,98.829709 C33.1969629,100.648389 34.6766367,102.128062 36.495041,102.128062 L41.6789941,102.128062 C43.4976738,102.128062 44.9770723,100.648389 44.9770723,98.829709 L44.9770723,90.333082 L74.0431758,90.333082 L74.0431758,136.81599 L32.1937148,136.81599 C31.0530469,136.81599 30.1282852,137.740477 30.1282852,138.88142 C30.1282852,140.022363 31.0530469,140.94685 32.1937148,140.94685 L138.934295,140.94685 C140.075238,140.94685 140.999725,140.022363 140.999725,138.88142 L140.999725,100.814174 C140.999725,98.8313613 139.386762,97.2178477 137.403949,97.2178477 Z M50.3221289,11.8475801 L46.8037383,11.8475801 L46.8037383,4.18400977 L50.3221289,4.18400977 L50.3221289,11.8475801 Z M86.4756855,36.9654082 L86.4756855,44.6292539 L82.9572949,44.6292539 L82.9572949,36.9654082 L86.4756855,36.9654082 Z M31.0458867,56.2430273 L34.5645527,56.2430273 L34.5645527,63.9065977 L31.0458867,63.9065977 L31.0458867,56.2430273 Z M14.3723613,56.2430273 L26.9150273,56.2430273 L26.9150273,64.7396543 C26.9150273,66.558334 28.3947012,68.0377324 30.2131055,68.0377324 L35.397334,68.0377324 C37.2160137,68.0377324 38.6954121,66.558334 38.6954121,64.7396543 L38.6954121,56.2430273 L51.2380781,56.2430273 L51.2380781,86.2022227 C43.2542285,86.2022227 21.0453516,86.2022227 14.3723613,86.2022227 L14.3723613,56.2430273 Z M40.8462129,97.9969277 L37.3278223,97.9969277 L37.3278223,90.333082 L40.8462129,90.333082 L40.8462129,97.9969277 Z M109.281059,101.348707 L109.281059,109.012553 L105.762393,109.012553 L105.762393,101.348707 L109.281059,101.348707 Z M136.869416,136.81599 L78.1743105,136.81599 L78.1743105,101.348707 L101.631533,101.348707 L101.631533,109.845334 C101.631533,111.664014 103.111207,113.143687 104.929887,113.143687 L110.11384,113.143687 C111.93252,113.143687 113.412193,111.664014 113.412193,109.845334 L113.412193,101.348707 L136.869416,101.348707 L136.869416,136.81599 L136.869416,136.81599 Z" id="Shape" fill="#000000"></path>
        </g>
    </g>
</svg>