<?xml version="1.0" encoding="UTF-8"?>
<svg width="150px" height="150px" viewBox="0 0 150 150" version="1.1" xmlns="http://www.w3.org/2000/svg" xmlns:xlink="http://www.w3.org/1999/xlink">
    <title>ic_clock</title>
    <g id="Buy-Store" stroke="none" stroke-width="1" fill="none" fill-rule="evenodd">
        <g id="#53a_become_iv_3" transform="translate(-105.000000, -232.000000)" fill-rule="nonzero">
            <g id="ic_clock" transform="translate(105.000000, 232.000000)">
                <circle id="Oval" fill="#EAB14D" cx="75" cy="75" r="75"></circle>
                <path d="M75,0 C73.6611328,0 72.3307617,0.0366210938 71.0091797,0.105761719 C110.575195,2.18056641 142.018652,34.9174805 142.018652,75 C142.018652,115.08252 110.575195,147.819434 71.0091797,149.894238 C72.3307617,149.963379 73.6611328,150 75,150 C116.421387,150 150,116.421387 150,75 C150,33.5786133 116.421387,0 75,0 Z" id="Path" fill="#E49542"></path>
                <circle id="Oval" fill="#F4FBFF" cx="75" cy="75" r="58.443457"></circle>
                <path d="M75,16.556543 C73.3813477,16.556543 71.7791016,16.6253906 70.1938477,16.7542969 C100.222852,19.1988281 123.831445,44.3411133 123.831445,75 C123.831445,105.658887 100.222852,130.800879 70.1938477,133.245703 C71.7791016,133.374902 73.3813477,133.44375 75,133.44375 C107.277539,133.44375 133.443457,107.277539 133.443457,75.000293 C133.443457,42.7230469 107.277539,16.556543 75,16.556543 Z" id="Path" fill="#DAF1F4"></path>
                <g id="Group" transform="translate(26.660156, 26.660156)" fill="#2B4D66">
                    <path d="M48.3398438,7.88408203 C47.0897461,7.88408203 46.0763672,6.87070312 46.0763672,5.62060547 L46.0763672,2.29833984 C46.0763672,1.04824219 47.0897461,0.0348632812 48.3398438,0.0348632812 C49.5899414,0.0348632812 50.6036133,1.04824219 50.6036133,2.29833984 L50.6036133,5.62060547 C50.6036133,6.87070312 49.5899414,7.88408203 48.3398437,7.88408203 L48.3398438,7.88408203 Z" id="Path"></path>
                    <path d="M78.4239258,20.4474609 C77.8444336,20.4474609 77.2652344,20.2262695 76.8231445,19.7844727 C75.9392578,18.900293 75.9392578,17.4673828 76.8234375,16.5832031 L79.1727539,14.2341797 C80.0566406,13.35 81.4898437,13.350293 82.3740234,14.2341797 C83.2579102,15.1183594 83.2579102,16.5512695 82.3737305,17.4354492 L80.0244141,19.7847656 C79.5823242,20.2262695 79.003125,20.4474609 78.4239258,20.4474609 Z" id="Path"></path>
                    <path d="M94.1352539,50.6036133 L90.8129883,50.6036133 C89.5625977,50.6036133 88.5495117,49.5902344 88.5495117,48.3401367 C88.5495117,47.0900391 89.5628906,46.0766602 90.8129883,46.0766602 L94.1352539,46.0766602 C95.3856445,46.0766602 96.3987305,47.0900391 96.3987305,48.3401367 C96.3987305,49.5902344 95.3853516,50.6036133 94.1352539,50.6036133 Z" id="Path"></path>
                    <path d="M80.5986328,83.0370117 C80.0194336,83.0370117 79.4399414,82.8158203 78.9978516,82.3740234 L76.6488281,80.025 C75.7649414,79.1408203 75.7649414,77.7079102 76.6488281,76.8234375 C77.5330078,75.9398437 78.965918,75.9398437 79.8503906,76.8234375 L82.1994141,79.1724609 C83.0833008,80.0566406 83.0833008,81.4895508 82.1994141,82.3740234 C81.7573242,82.8158203 81.177832,83.0370117 80.5986328,83.0370117 L80.5986328,83.0370117 Z" id="Path"></path>
                    <path d="M48.0931641,96.3993164 C46.8430664,96.3993164 45.8296875,95.3859375 45.8296875,94.1358398 L45.8296875,90.8135742 C45.8296875,89.5631836 46.8430664,88.5500977 48.0931641,88.5500977 C49.3432617,88.5500977 50.3566406,89.5634766 50.3566406,90.8135742 L50.3566406,94.1358398 C50.3566406,95.3859375 49.3432617,96.3993164 48.0931641,96.3993164 L48.0931641,96.3993164 Z" id="Path"></path>
                    <path d="M15.6597656,82.8624023 C15.0805664,82.8624023 14.5010742,82.6412109 14.0592773,82.1991211 C13.1750977,81.3152344 13.1753906,79.8820312 14.0592773,78.9978516 L16.4085938,76.6488281 C17.2927734,75.7652344 18.7256836,75.7649414 19.6098633,76.6491211 C20.49375,77.5330078 20.49375,78.9662109 19.6095703,79.8503906 L17.2602539,82.1994141 C16.818457,82.6415039 16.2389648,82.8624023 15.6597656,82.8624023 L15.6597656,82.8624023 Z" id="Path"></path>
                    <path d="M5.62001953,50.3572266 L2.29775391,50.3572266 C1.04765625,50.3572266 0.0342773438,49.3438477 0.0342773438,48.09375 C0.0342773438,46.8436523 1.04765625,45.8302734 2.29775391,45.8302734 L5.62001953,45.8302734 C6.87011719,45.8302734 7.88349616,46.8436523 7.88349616,48.09375 C7.88378906,49.3438477 6.87011719,50.3572266 5.62001953,50.3572266 Z" id="Path"></path>
                    <path d="M18.1836914,20.2731445 C17.6044922,20.2731445 17.025293,20.0522461 16.5832031,19.6101563 L14.2338867,17.2611328 C13.35,16.3769531 13.349707,14.944043 14.2335938,14.0598633 C15.1177734,13.1759766 16.5506836,13.1756836 17.4348633,14.0595703 L19.7841797,16.4088867 C20.6680664,17.2927734 20.6683594,18.7259766 19.7844727,19.6101563 C19.3420898,20.0519531 18.7628906,20.2731445 18.1836914,20.2731445 Z" id="Path"></path>
                </g>
                <path d="M75,77.2637695 L55.7753906,77.2637695 C54.525293,77.2637695 53.5119141,76.2500977 53.5119141,75 C53.5119141,73.7499023 54.525293,72.7365234 55.7753906,72.7365234 L72.7362305,72.7365234 L72.7362305,43.9385742 C72.7362305,42.6884766 73.7496094,41.6750977 74.999707,41.6750977 C76.2498047,41.6750977 77.2631837,42.6884766 77.2631837,43.9385742 L77.2631837,75 C77.2634766,76.2500977 76.2500977,77.2637695 75,77.2637695 Z" id="Path" fill="#2B4D66"></path>
                <path d="M98.2224609,89.2063477 C97.8738281,89.2063477 97.5205078,89.1254883 97.1891602,88.9552734 L73.9649414,77.0126953 C72.853125,76.4411133 72.4154297,75.0764648 72.9870117,73.9646484 C73.5585938,72.852832 74.9232422,72.4148437 76.0353516,72.9867187 L99.2595703,84.9290039 C100.371387,85.5008789 100.809375,86.8655273 100.2375,87.9770508 C99.8358398,88.7578125 99.0436523,89.2063477 98.2224609,89.2063477 L98.2224609,89.2063477 Z" id="Path" fill="#DA4A54"></path>
                <circle id="Oval" fill="#365E7D" cx="75" cy="75" r="6.04160156"></circle>
            </g>
        </g>
    </g>
</svg>