<?xml version="1.0" encoding="UTF-8"?>
<svg width="69px" height="70px" viewBox="0 0 69 70" version="1.1" xmlns="http://www.w3.org/2000/svg" xmlns:xlink="http://www.w3.org/1999/xlink">
    <title>box (1)</title>
    <g id="Page-1" stroke="none" stroke-width="1" fill="none" fill-rule="evenodd">
        <g id="box-(1)" fill-rule="nonzero">
            <polygon id="Path" fill="#D9AC80" points="34.2697201 0 51.2977099 8.76335878 68.3969466 17.4554707 51.2977099 26.2188295 34.2697201 34.9821883 17.2417303 26.2188295 0.142493639 17.4554707 17.2417303 8.76335878"></polygon>
            <polygon id="Path" fill="#D7BAA4" points="55.5725191 31.9898219 55.5725191 24.0814249 47.0229008 28.4274809 47.0229008 36.3358779 51.7251908 30.5648855"></polygon>
            <polygon id="Path" fill="#A67E4F" points="34.2697201 34.9821883 34.2697201 69.9643766 68.3969466 52.5089059 68.3969466 17.4554707 55.5725191 24.0814249 55.2875318 24.2239186 55.2875318 31.9185751 51.7251908 30.5648855 47.0229008 36.3358779 47.0229008 28.4274809"></polygon>
            <polygon id="Path" fill="#926E43" points="34.2697201 69.9643766 34.2697201 34.9821883 17.2417303 26.2188295 0.142493639 17.4554707 0.142493639 52.5089059"></polygon>
            <polygon id="Path" fill="#F2D3BA" points="12.9669211 10.9007634 47.0229008 28.4274809 55.2875318 24.2239186 55.5725191 24.0814249 21.5165394 6.55470738 17.2417303 8.76335878"></polygon>
        </g>
    </g>
</svg>