<?xml version="1.0" encoding="UTF-8"?>
<svg width="101px" height="100px" viewBox="0 0 101 100" version="1.1" xmlns="http://www.w3.org/2000/svg" xmlns:xlink="http://www.w3.org/1999/xlink">
    <title>boxes (2)</title>
    <g id="Page-1" stroke="none" stroke-width="1" fill="none" fill-rule="evenodd">
        <g id="boxes-(2)" fill-rule="nonzero">
            <path d="M92.7875244,96.7836257 L7.53736192,96.7836257 C5.24184535,96.7836257 3.37881741,94.9205978 3.37881741,92.6250812 L3.37881741,35.4450942 L50.1624431,3.21637427 L96.9460689,35.4450942 L96.9460689,92.6250812 C96.9460689,94.9205978 95.0830409,96.7836257 92.7875244,96.7836257 Z" id="Path" fill="#F3F3F1"></path>
            <g id="Group" transform="translate(21.929825, 48.765432)" fill="#049BF8">
                <polygon id="Path" points="28.2326186 25.1461988 56.302794 25.1461988 56.302794 48.0181936 28.2326186 48.0181936"></polygon>
                <polygon id="Path" points="14.7173489 0.194931774 41.7478882 0.194931774 41.7478882 25.1461988 14.7173489 25.1461988"></polygon>
                <polygon id="Path" points="0.162443145 25.1461988 28.2326186 25.1461988 28.2326186 48.0181936 0.162443145 48.0181936"></polygon>
            </g>
            <path d="M12.7355426,92.6250812 L12.7355426,35.4450942 L54.8408057,6.43924626 L50.1624431,3.21637427 L3.37881741,35.4450942 L3.37881741,92.6250812 C3.37881741,94.9205978 5.24184535,96.7836257 7.53736192,96.7836257 L16.8940871,96.7836257 C14.5985705,96.7836257 12.7355426,94.9205978 12.7355426,92.6250812 Z" id="Path" fill="#D5DBE1"></path>
            <polygon id="Path" fill="#0684D2" points="50.1624431 73.9116309 59.5191683 73.9116309 59.5191683 96.7836257 50.1624431 96.7836257"></polygon>
            <polygon id="Path" fill="#0684D2" points="36.6471735 48.9603639 46.0038986 48.9603639 46.0038986 73.9116309 36.6471735 73.9116309"></polygon>
            <polygon id="Path" fill="#0684D2" points="22.0922677 73.9116309 31.4489929 73.9116309 31.4489929 96.7836257 22.0922677 96.7836257"></polygon>
            <path d="M78.2326186,99.9025341 L50.1624431,99.9025341 C48.4408057,99.9025341 47.0435348,98.5052632 47.0435348,96.7836257 L47.0435348,73.9116309 C47.0435348,72.1899935 48.4408057,70.7927225 50.1624431,70.7927225 L78.2326186,70.7927225 C79.954256,70.7927225 81.351527,72.1899935 81.351527,73.9116309 L81.351527,96.7836257 C81.351527,98.5052632 79.954256,99.9025341 78.2326186,99.9025341 Z M53.2813515,93.6647173 L75.1137102,93.6647173 L75.1137102,77.0305393 L53.2813515,77.0305393 L53.2813515,93.6647173 Z" id="Shape" fill="#000000"></path>
            <path d="M63.6777128,77.0305393 L36.6471735,77.0305393 C34.9255361,77.0305393 33.5282651,75.6332684 33.5282651,73.9116309 L33.5282651,48.9603639 C33.5282651,47.2387264 34.9255361,45.8414555 36.6471735,45.8414555 L63.6777128,45.8414555 C65.3993502,45.8414555 66.7966212,47.2387264 66.7966212,48.9603639 L66.7966212,73.9116309 C66.7966212,75.6332684 65.3993502,77.0305393 63.6777128,77.0305393 Z M39.7660819,70.7927225 L60.5588044,70.7927225 L60.5588044,52.0792723 L39.7660819,52.0792723 L39.7660819,70.7927225 Z" id="Shape" fill="#000000"></path>
            <path d="M50.1624431,99.9025341 L22.0922677,99.9025341 C20.3706303,99.9025341 18.9733593,98.5052632 18.9733593,96.7836257 L18.9733593,73.9116309 C18.9733593,72.1899935 20.3706303,70.7927225 22.0922677,70.7927225 L50.1624431,70.7927225 C51.8840806,70.7927225 53.2813515,72.1899935 53.2813515,73.9116309 L53.2813515,96.7836257 C53.2813515,98.5052632 51.8840806,99.9025341 50.1624431,99.9025341 Z M25.2111761,93.6647173 L47.0435348,93.6647173 L47.0435348,77.0305393 L25.2111761,77.0305393 L25.2111761,93.6647173 Z" id="Shape" fill="#000000"></path>
            <polygon id="Path" fill="#000000" points="47.0435348 48.9603639 53.2813515 48.9603639 53.2813515 55.1981806 47.0435348 55.1981806"></polygon>
            <polygon id="Path" fill="#000000" points="33.5282651 73.9116309 39.7660819 73.9116309 39.7660819 80.1494477 33.5282651 80.1494477"></polygon>
            <polygon id="Path" fill="#000000" points="60.5588044 73.9116309 66.7966212 73.9116309 66.7966212 80.1494477 60.5588044 80.1494477"></polygon>
            <path d="M92.7875244,99.9025341 L7.53736192,99.9025341 C3.52436647,99.9025341 0.259909032,96.6380767 0.259909032,92.6250812 L0.259909032,35.4450942 C0.259909032,34.4179337 0.767251462,33.4573099 1.611436,32.8751137 L48.3950617,0.646393762 C49.4596491,-0.089668616 50.8693957,-0.089668616 51.9339831,0.646393762 L98.7176088,32.8751137 C99.5576348,33.4573099 100.064977,34.4179337 100.064977,35.4450942 L100.064977,92.6250812 C100.064977,96.6380767 96.8005198,99.9025341 92.7875244,99.9025341 Z M6.4977258,37.0835608 L6.4977258,92.6250812 C6.4977258,93.1989604 6.96348278,93.6647173 7.53736192,93.6647173 L92.7875244,93.6647173 C93.3614035,93.6647173 93.8271605,93.1989604 93.8271605,92.6250812 L93.8271605,37.0835608 L50.1624431,7.00480832 L6.4977258,37.0835608 Z" id="Shape" fill="#000000"></path>
        </g>
    </g>
</svg>