<?xml version="1.0" encoding="UTF-8"?>
<svg width="141px" height="150px" viewBox="0 0 141 150" version="1.1" xmlns="http://www.w3.org/2000/svg" xmlns:xlink="http://www.w3.org/1999/xlink">
    <title>ic_indp_verifier</title>
    <g id="Buy-Store" stroke="none" stroke-width="1" fill="none" fill-rule="evenodd">
        <g id="#53a_become_iv_2" transform="translate(-110.000000, -230.000000)" fill-rule="nonzero">
            <g id="delivery-man" transform="translate(110.000000, 230.000000)">
                <path d="M115.418245,92.5531915 L132.382857,109.528419 C135.89026,113.037949 137.860682,117.797938 137.860682,122.761211 L137.860682,138.089942 C137.860682,143.257597 133.67409,147.446809 128.509667,147.446809 L120.405454,147.446809 L120.405454,129.980658 L115.418245,129.980658 L115.418245,92.5531915 Z" id="Path" fill="#FA5D3F"></path>
                <polygon id="Path" fill="#FA5D3F" points="27.5721364 139.787234 27.5721364 90.141844 55.163132 72.7659574 85.2623999 72.7659574 112.853396 90.141844 112.853396 139.787234"></polygon>
                <polygon id="Path" fill="#FFD4CF" points="85.2812591 72.5106383 70.212766 87.4468085 55.1442728 72.5106383 57.6556883 62.5531915 82.7698436 62.5531915"></polygon>
                <path d="M83.9988342,66.2174974 L83.0271614,62.5531915 L57.4146985,62.5531915 L56.4266978,66.2787603 L65.0484931,70.3423314 C68.3117155,71.8803724 72.1547826,71.8711937 75.4096947,70.3175848 L83.9988342,66.2174974 Z" id="Path" fill="#FBB8B0"></path>
                <path d="M94.3918197,32.4369579 L90.6246964,32.4369579 L90.6246964,22.3404255 L50.442048,22.3404255 L50.442048,32.4369579 L46.6749247,32.4369579 C43.2073835,32.4369579 40.3963859,35.2621901 40.3963859,38.7472906 L40.3963859,41.2714237 C40.3963859,44.7565243 43.2073835,47.5817565 46.6749247,47.5817565 L50.442048,47.5817565 L50.442048,51.8282949 C50.4419909,55.4135408 52.457349,58.6911113 55.6478985,60.2945528 L67.7080297,66.3549963 C69.4855942,67.2483431 71.5790294,67.2430769 73.3521222,66.3407981 L85.4618539,60.1774961 C88.6288334,58.5655065 90.6248647,55.3006207 90.6246964,51.7326933 L90.6246964,47.5817565 L94.3918197,47.5817565 C97.8593609,47.5817565 100.670358,44.7565243 100.670358,41.2714237 L100.670358,38.7472906 C100.670358,35.2621901 97.8593609,32.4369579 94.3918197,32.4369579 Z" id="Path" fill="#FFD4CF"></path>
                <g id="Group" transform="translate(57.709123, 35.106383)" fill="#000000">
                    <polygon id="Path" points="-0.000324778765 0 5.12937502 0 5.12937502 5.10638298 -0.000324778765 5.10638298"></polygon>
                    <polygon id="Path" points="19.8772619 0 25.0069617 0 25.0069617 5.10638298 19.8772619 5.10638298"></polygon>
                </g>
                <path d="M70.212766,57.4468085 C66.0778272,57.4468085 62.8388225,54.6430851 62.8388225,51.0638298 L67.7547848,51.0638298 C67.7547848,51.5138298 68.6878959,52.3404255 70.212766,52.3404255 C71.737636,52.3404255 72.6707471,51.5138298 72.6707471,51.0638298 L77.5867094,51.0638298 C77.5867094,54.6430851 74.3477048,57.4468085 70.212766,57.4468085 Z" id="Path" fill="#000000"></path>
                <path d="M63.675961,2.55319149 L77.3907834,2.55319149 C85.9981552,2.55319149 92.9758088,9.47432152 92.9758088,18.0119681 L92.9758088,22.3404255 L48.0909356,22.3404255 L48.0909356,18.0119681 C48.0909356,9.47432152 55.0685891,2.55319149 63.675961,2.55319149 Z" id="Path" fill="#FA5D3F"></path>
                <path d="M83.2837932,31.4650705 L77.4493831,27.4226261 C73.2613835,24.5209969 67.8053609,24.5209969 63.6173613,27.4226261 L57.7829512,31.4650705 C55.8700064,32.7904422 53.4104137,32.9140086 51.3833792,31.7865756 C49.3563446,30.6591426 48.0909356,28.4637376 48.0909356,26.0743887 L48.0909356,22.630909 L58.4234957,16.6652342 C65.9545097,12.3172624 75.1116113,12.3172624 82.6426252,16.6652342 L92.9758088,22.630909 L92.9758088,26.0743887 C92.9758088,28.4637376 91.7103998,30.6591426 89.6833652,31.7865756 C87.6563307,32.9140086 85.196738,32.7904422 83.2837932,31.4650705 L83.2837932,31.4650705 Z" id="Path" fill="#FAC850"></path>
                <polygon id="Path" fill="#FAC850" points="25.0072865 82.9787234 115.418245 82.9787234 115.418245 147.446809 25.0072865 147.446809"></polygon>
                <path d="M30.1369863,129.574468 L19.8775867,129.574468 L19.8775867,147.446809 L48.0909356,147.446809 C48.0909356,137.576187 40.0526787,129.574468 30.1369863,129.574468 L30.1369863,129.574468 Z" id="Path" fill="#FFD4CF"></path>
                <polygon id="Path" fill="#FA7D29" points="60.2739726 82.9787234 80.1515593 82.9787234 80.1515593 104.680851 60.2739726 104.680851"></polygon>
                <polygon id="Path" fill="#FA7D29" points="60.2739726 132.765957 80.1515593 132.765957 80.1515593 147.446809 60.2739726 147.446809"></polygon>
                <path d="M25.0072865,92.5531915 L8.04267463,109.528419 C4.53527175,113.037949 2.5648499,117.797938 2.5648499,122.761211 L2.5648499,138.089942 C2.5648499,143.257597 6.75144203,147.446809 11.9158652,147.446809 L20.0200784,147.446809 L20.0200784,129.980658 L25.0072865,129.980658 L25.0072865,92.5531915 Z" id="Path" fill="#FA5D3F"></path>
                <path d="M110.521714,129.574468 L120.547945,129.574468 L120.547945,147.446809 L92.9758088,147.446809 C92.9758088,137.576187 100.831378,129.574468 110.521714,129.574468 L110.521714,129.574468 Z" id="Path" fill="#FFD4CF"></path>
                <polygon id="Path" fill="#000000" points="32.7018362 90 37.831536 90 37.831536 95.106383 32.7018362 95.106383"></polygon>
                <polygon id="Path" fill="#000000" points="42.3200233 90 52.5794229 90 52.5794229 95.106383 42.3200233 95.106383"></polygon>
                <polygon id="Path" fill="#000000" points="32.7018362 100.212766 52.5794229 100.212766 52.5794229 104.680851 32.7018362 104.680851"></polygon>
                <path d="M96.5559118,92.5531915 L105.158846,92.5531915 L105.158846,98.6170213 C105.158846,101.965982 102.407657,104.680851 99.0138929,104.680851 L90.4109589,104.680851 L90.4109589,98.6170213 C90.4109589,95.2680606 93.162148,92.5531915 96.5559118,92.5531915 L96.5559118,92.5531915 Z" id="Path" fill="#FFFFFE"></path>
                <path d="M99.0269268,107.87234 L90.3304826,107.87234 C88.9582216,107.87234 87.8457842,106.729238 87.8457842,105.319149 L87.8457842,98.9361702 C87.8512613,94.0031928 91.7415854,90.005628 96.5422284,90 L105.238673,90 C106.610934,90 107.723371,91.1431028 107.723371,92.5531915 L107.723371,98.9361702 C107.717894,103.869148 103.82757,107.866712 99.0269268,107.87234 Z M92.975484,102.765957 L99.3876088,102.765957 C101.511448,102.763671 103.232587,101.050355 103.234884,98.9361702 L103.234884,95.106383 L96.8227589,95.106383 C94.6989199,95.1086696 92.9777811,96.821985 92.975484,98.9361702 L92.975484,102.765957 Z" id="Shape" fill="#000000"></path>
                <path d="M134.182467,107.740625 L124.64514,98.2321875 L121.098772,101.767813 L130.6361,111.275938 C133.702715,114.316852 135.421703,118.454456 135.409935,122.766563 L135.409935,138.125 C135.405617,141.920173 132.320751,144.995695 128.514047,145 L122.871956,145 L122.871956,132.5 L127.887148,132.5 L127.887148,127.5 L117.856764,127.5 L117.856764,82.5 C117.856764,81.1192881 116.734075,80 115.349168,80 L101.750475,80 L87.4480884,70.9259375 L85.3724259,62.64875 L86.2500844,62.2053125 C90.2651243,60.1934859 92.7939583,56.0912393 92.7808046,51.61125 L92.7808046,50 L94.0346026,50 C98.8794856,49.9944892 102.805661,46.0802071 102.811188,41.25 L102.811188,38.75 C102.805616,33.9934755 98.9939836,30.1104376 94.2242395,30.0021875 C94.9236023,28.7192332 95.289458,27.2820531 95.2884005,25.821875 L95.2884005,18.125 C95.2769999,8.11955069 87.1441796,0.0113661215 77.10833,0 L63.3165524,0 C53.2807028,0.0113661215 45.1478825,8.11955069 45.1364818,18.125 L45.1364818,25.821875 C45.1359053,27.2821878 45.5023019,28.7193759 46.2022101,30.0021875 C41.4318514,30.1096026 37.619286,33.9928819 37.613694,38.75 L37.613694,41.25 C37.6192216,46.0802071 41.5453968,49.9944892 46.3902798,50 L47.6440778,50 L47.6440778,51.7059375 C47.6287351,56.2081787 50.1823518,60.3274501 54.2283978,62.3271875 L55.0327092,62.728125 L52.976794,70.9259375 L38.6744071,80 L25.0757144,80 C23.6908074,80 22.5681184,81.1192881 22.5681184,82.5 L22.5681184,91.464375 L13.2721468,100.732187 L16.8185144,104.267812 L22.5681184,98.535625 L22.5681184,127.5 L12.5377347,127.5 L12.5377347,132.5 L17.5529266,132.5 L17.5529266,145 L11.9108357,145 C8.10413166,144.995695 5.01926532,141.920173 5.01494688,138.125 L5.01494688,122.766562 C5.00320131,118.454521 6.72205736,114.316962 9.78846919,111.275937 L11.8030091,109.267812 L8.25726842,105.732187 L6.24241509,107.740625 C2.23215142,111.717043 -0.0157607248,117.127716 -0.000324778765,122.766562 L-0.000324778765,138.125 C0.00718280159,144.680312 5.33560663,149.992595 11.9108357,150 L128.514047,150 C135.089276,149.992595 140.4177,144.680312 140.425207,138.125 L140.425207,122.766563 C140.440643,117.127716 138.192731,111.717043 134.182467,107.740625 Z M62.8384977,84.893617 L77.5863846,84.893617 L77.5863846,102.12766 L62.8384977,102.12766 L62.8384977,84.893617 Z M81.4336595,80.4255319 L85.6727352,75.9574468 L92.3342715,80.4255319 L81.4336595,80.4255319 Z M52.6240978,28.9123579 C51.4035599,28.273588 50.6435262,27.0061933 50.6554607,25.6297922 L50.6554607,23.7921138 L59.6728512,18.7875973 C66.420314,15.0140633 74.6459226,15.0140633 81.3933854,18.7875973 L90.4106341,23.7921138 L90.4106341,25.6297922 C90.4106341,27.0027923 89.6539944,28.2643039 88.4421774,28.9121454 C87.2303604,29.5599868 85.75997,29.4889995 84.6163383,28.7274421 L78.8027861,24.8560002 C73.798378,21.5101499 67.2678586,21.5101499 62.2634506,24.8560002 L56.4498984,28.7274421 C55.3102447,29.5008811 53.8331761,29.5722735 52.6240978,28.9123579 L52.6240978,28.9123579 Z M97.4639713,38.9361702 L97.4639713,41.4893617 C97.4616742,43.6035469 95.7405355,45.3168623 93.6166965,45.3191489 L92.3342715,45.3191489 L92.3342715,35.106383 L93.6166965,35.106383 C95.7405355,35.1086696 97.4616742,36.821985 97.4639713,38.9361702 Z M63.700127,5.10638298 L77.3659678,5.10638298 C84.5670032,5.11457156 90.4025893,11.0544511 90.4106341,18.3841831 L90.4106341,18.5106383 L83.8063059,14.7773635 C75.5597183,10.0778251 65.5063765,10.0778251 57.2597889,14.7773635 L50.6554607,18.5106383 L50.6554607,18.3841831 C50.6635055,11.0544511 56.4990916,5.11457156 63.700127,5.10638298 L63.700127,5.10638298 Z M46.8081859,45.3191489 C44.6843468,45.3168623 42.9632081,43.6035469 42.960911,41.4893617 L42.960911,38.9361702 C42.9632081,36.821985 44.6843468,35.1086696 46.8081859,35.106383 L48.0906108,35.106383 L48.0906108,45.3191489 L46.8081859,45.3191489 Z M52.5790981,51.4040094 L52.5790981,34.346182 C54.7307073,34.652793 56.9215667,34.1653204 58.7290687,32.9778044 L64.623002,29.1153336 C68.0054106,26.8906335 72.4188511,26.8906335 75.8012598,29.1153336 L81.695193,32.9778044 C83.5031115,34.1648972 85.6940378,34.6522245 87.8457842,34.3458725 L87.8457842,51.3102256 C87.8534852,53.87915 86.3827727,56.2315006 84.0476653,57.3851285 L71.9017797,63.4309369 C70.8340815,63.9596705 69.5753247,63.9628819 68.5048488,63.4396034 L56.4087143,57.4946978 C54.0554943,56.3479424 52.5702696,53.9857907 52.5790981,51.4040094 L52.5790981,51.4040094 Z M66.6177049,68.3913779 C69.0867106,69.5953434 71.9900178,69.5881058 74.4527476,68.3718462 L81.0306102,65.106383 L82.7160844,71.7157415 L74.4816948,79.787234 L66.5844,79.787234 L58.3500104,71.7139104 L60.0221004,65.1567383 L66.6177049,68.3913779 Z M54.7522665,75.9574468 L58.9912229,80.4255319 L48.0906108,80.4255319 L54.7522665,75.9574468 Z M27.5718116,84.893617 L57.6710795,84.893617 L57.6710795,104.893617 C57.6710795,106.274329 58.7940713,107.393617 60.1793519,107.393617 L80.2455305,107.393617 C81.630811,107.393617 82.7538028,106.274329 82.7538028,104.893617 L82.7538028,84.893617 L112.853071,84.893617 L112.853071,127.393617 L110.344798,127.393617 C100.237418,127.40716 91.7125985,134.900316 90.4353868,144.893617 L82.7538028,144.893617 L82.7538028,132.393617 C82.7538028,131.012905 81.630811,129.893617 80.2455305,129.893617 L60.1793519,129.893617 C58.7940713,129.893617 57.6710795,131.012905 57.6710795,132.393617 L57.6710795,144.893617 L49.9894955,144.893617 C48.7122838,134.900316 40.1874644,127.40716 30.080084,127.393617 L27.5718116,127.393617 L27.5718116,84.893617 Z M22.4421118,145.531915 L22.4421118,132.765957 L29.9928734,132.765957 C37.3587823,132.775519 43.6469435,138.166074 44.8845484,145.531915 L22.4421118,145.531915 Z M62.8384977,145.531915 L62.8384977,135.319149 L77.5863846,135.319149 L77.5863846,145.531915 L62.8384977,145.531915 Z M117.982771,145.531915 L95.5403339,145.531915 C96.7779389,138.166074 103.0661,132.775519 110.432009,132.765957 L117.982771,132.765957 L117.982771,145.531915 Z" id="Shape" fill="#000000"></path>
            </g>
        </g>
    </g>
</svg>