<?xml version="1.0" encoding="UTF-8"?>
<svg width="75px" height="75px" viewBox="0 0 75 75" version="1.1" xmlns="http://www.w3.org/2000/svg" xmlns:xlink="http://www.w3.org/1999/xlink">
    <title>ic_like_store</title>
    <g id="Page-1" stroke="none" stroke-width="1" fill="none" fill-rule="evenodd">
        <path d="M70.1087402,13.4641113 L70.1087402,7.33696289 C70.1087402,3.29135742 66.8173828,0 62.7717773,0 L12.2282227,0 C8.18261719,0 4.89125977,3.29135742 4.89125977,7.33696289 L4.89125977,13.4641113 C2.04477539,14.4736816 1.42108547e-14,17.1921387 1.42108547e-14,20.3803711 L1.42108547e-14,72.5542969 C1.42108547e-14,73.9050293 1.0949707,75 2.44570313,75 L72.5544434,75 C73.9050293,75 75.0001465,73.9050293 75.0001465,72.5542969 L75.0001465,20.3803711 C75.0001465,17.1921387 72.9552246,14.4736816 70.1087402,13.4641113 Z M32.6087402,17.9348145 L42.3914062,17.9348145 L42.3914062,22.8260742 C42.3914062,25.5231445 40.1972168,27.717334 37.5001465,27.717334 C34.8030762,27.717334 32.6088867,25.5231445 32.6088867,22.8260742 L32.6088867,17.9348145 L32.6087402,17.9348145 Z M13.0435547,70.1087402 L4.89125977,70.1087402 L4.89125977,32.0520996 C5.92426758,32.4161133 7.02407227,32.6087402 8.15214844,32.6087402 C9.93339844,32.6087402 11.6033203,32.1279785 13.0434082,31.2927246 L13.0434082,70.1087402 L13.0435547,70.1087402 Z M13.0435547,22.8260742 C13.0435547,25.5231445 10.8493652,27.717334 8.15229492,27.717334 C6.9347168,27.717334 5.7824707,27.2702637 4.89140625,26.4713379 L4.89140625,20.3803711 C4.89140625,19.0318359 5.98857422,17.934668 7.33710938,17.934668 L13.0437012,17.934668 L13.0437012,22.8260742 L13.0435547,22.8260742 Z M17.9348145,22.8260742 L17.9348145,17.9348145 L27.7174805,17.9348145 L27.7174805,22.8260742 C27.7174805,25.5231445 25.523291,27.717334 22.8262207,27.717334 C20.1290039,27.717334 17.9348145,25.5231445 17.9348145,22.8260742 Z M42.9344238,62.915332 C41.7285645,63.9629883 40.4816895,65.0465332 39.1587891,66.2270508 C38.694873,66.6408691 38.1125977,66.847998 37.5304688,66.847998 C36.9481934,66.847998 36.3660645,66.6411621 35.9021484,66.2270508 C34.579248,65.0466797 33.332373,63.9629883 32.1265137,62.9151855 C25.3428223,57.0203613 20.4414551,52.7611816 20.4414551,46.452832 C20.4414551,43.6731445 21.3757324,41.0613281 23.072168,39.0984375 C24.8967773,36.9871582 27.43125,35.8245117 30.2087402,35.8245117 C33.0966797,35.8245117 35.6145996,37.110498 37.5303223,39.552832 C39.4460449,37.110498 41.9639648,35.8245117 44.8520508,35.8245117 C47.6296875,35.8245117 50.1641602,36.9871582 51.988623,39.0984375 C53.6850586,41.0613281 54.6193359,43.6731445 54.6193359,46.452832 C54.6193359,52.7611816 49.7181152,57.0203613 42.9344238,62.915332 Z M57.0651855,22.8260742 C57.0651855,25.5231445 54.8709961,27.717334 52.1739258,27.717334 C49.4768555,27.717334 47.282666,25.5231445 47.282666,22.8260742 L47.282666,17.9348145 L57.065332,17.9348145 L57.065332,22.8260742 L57.0651855,22.8260742 Z M70.1087402,70.1087402 L61.9565918,70.1087402 L61.9565918,31.2925781 C63.3966797,32.127832 65.0666016,32.6085938 66.8478516,32.6085938 C67.9759277,32.6085938 69.0757324,32.4159668 70.1087402,32.0519531 L70.1087402,70.1087402 L70.1087402,70.1087402 Z M70.1087402,26.4714844 C69.2176758,27.2704102 68.0654297,27.7174805 66.8478516,27.7174805 C64.1507813,27.7174805 61.9565918,25.523291 61.9565918,22.8262207 L61.9565918,17.9349609 L67.6630371,17.9349609 C69.0115723,17.9349609 70.1087402,19.0321289 70.1087402,20.3806641 L70.1087402,26.4714844 Z" id="ic_like_store" fill="#009BFB" fill-rule="nonzero"></path>
    </g>
</svg>