<?xml version="1.0" encoding="UTF-8"?>
<svg width="104px" height="101px" viewBox="0 0 104 101" version="1.1" xmlns="http://www.w3.org/2000/svg" xmlns:xlink="http://www.w3.org/1999/xlink">
    <title>ic_payment</title>
    <g id="Page-1" stroke="none" stroke-width="1" fill="none" fill-rule="evenodd">
        <g id="ic_payment" transform="translate(0.000000, -0.000000)" fill-rule="nonzero">
            <path d="M25.4238854,54.3201848 L39.210953,54.3201848 L39.210953,87.0644704 L38.3492613,87.0644704 C31.2107733,87.0644704 25.4238854,81.2775825 25.4238854,74.1390945 L25.4238854,54.3201848 Z" id="Path" fill="#FBB8B0" transform="translate(32.317419, 70.692328) rotate(-26.052351) translate(-32.317419, -70.692328) "></path>
            <path d="M34.716528,47.4291845 L48.5035957,47.4291845 L48.5035957,80.1734702 L47.6419039,80.1734702 C40.5034159,80.1734702 34.716528,74.3865823 34.716528,67.2480943 L34.716528,47.4291845 Z" id="Path" fill="#FBB8B0" transform="translate(41.610062, 63.801327) rotate(-26.052351) translate(-41.610062, -63.801327) "></path>
            <path d="M29.1810345,61.3713362 L85.0732759,77.1040948 C86.2190276,77.4265294 87.4092299,76.7591091 87.731681,75.6133621 L96.4224138,44.7413793 L39.5258621,44.8275862 L29.1810345,61.3713362 Z" id="Path" fill="#63C521"></path>
            <polygon id="Path" fill="#9FDC6E" transform="translate(58.620690, 25.862069) rotate(-180.000000) translate(-58.620690, -25.862069) " points="15.5172414 1.72413793 101.724138 1.72413793 101.724138 50 15.5172414 50"></polygon>
            <path d="M103.448276,12.0689655 L100,12.0689655 L100,3.44827586 L17.2413793,3.44827586 L17.2413793,12.0689655 L13.7931034,12.0689655 L13.7931034,1.72413793 C13.7931034,0.771922845 14.5650263,0 15.5172414,0 L101.724138,0 C102.676353,0 103.448276,0.771922845 103.448276,1.72413793 L103.448276,12.0689655 Z" id="Path" fill="#000000"></path>
            <path d="M29.3103448,100 L29.3103448,68.9655172 L39.8922414,51.7372845 C43.6211378,45.9364287 42.1418865,38.2300982 36.5301724,34.2221983 L34.4827586,32.7586207 L20.6896552,50 L17.5431034,50 C16.3528346,50 15.387931,49.0350964 15.387931,47.8448276 L15.387931,12.0689655 L12.1551724,12.0689655 C10.1004601,12.0689655 8.33137736,13.5192339 7.92844828,15.5340517 L1.72413793,46.5517241 L6.89655172,70.6896552 L6.89655172,100 L29.3103448,100 Z" id="Path" fill="#FFD4CF"></path>
            <path d="M8.62068966,100 L5.17241379,100 L5.17241379,70.8724138 L0.038362069,46.912931 C-0.0110071359,46.6825951 -0.012694074,46.4445902 0.0334051724,46.2135776 L3.13685345,30.6963362 L6.51831897,31.3726293 L3.48469828,46.5396552 L8.58232759,70.3284483 C8.60778819,70.4471655 8.62068966,70.5682385 8.62068966,70.6896552 L8.62068966,100 Z" id="Path" fill="#000000"></path>
            <circle id="Oval" fill="#FBFEF9" cx="58.6206897" cy="25.862069" r="10.3448276"></circle>
            <path d="M58.6206897,37.9310345 C51.9551841,37.9310345 46.5517241,32.5275746 46.5517241,25.862069 C46.5517241,19.1965634 51.9551841,13.7931034 58.6206897,13.7931034 C65.2861953,13.7931034 70.6896552,19.1965634 70.6896552,25.862069 C70.6821726,32.5244727 65.2830934,37.9235519 58.6206897,37.9310345 Z M58.6206897,17.2413793 C53.8596142,17.2413793 50,21.1009935 50,25.862069 C50,30.6231444 53.8596142,34.4827586 58.6206897,34.4827586 C63.3817651,34.4827586 67.2413793,30.6231444 67.2413793,25.862069 C67.2360346,21.1032091 63.3795495,17.246724 58.6206897,17.2413793 L58.6206897,17.2413793 Z" id="Shape" fill="#000000"></path>
            <polygon id="Path" fill="#000000" points="79.3103448 17.2413793 89.6551724 17.2413793 89.6551724 20.6896552 79.3103448 20.6896552"></polygon>
            <path d="M100,15.5172414 L100,48.2758621 L43.2446121,48.2758621 C43.5250535,47.1476949 43.6697563,45.9900722 43.6756466,44.8275862 L88.2265086,44.8275862 C88.7862776,44.8275862 89.3112069,44.5558333 89.6343492,44.0987553 C89.9574915,43.6416773 90.0386226,43.0561705 89.8519397,42.5284483 C89.4089539,41.2757022 89.7251797,39.8798838 90.6648256,38.940376 C91.6044714,38.0008682 93.0003362,37.6848474 94.2530172,38.1280172 C94.7807234,38.3145371 95.3661332,38.2332953 95.8231056,37.9101242 C96.280078,37.5869531 96.5517446,37.0620701 96.5517241,36.5023707 L96.5517241,13.4976293 C96.5517446,12.9379299 96.280078,12.4130469 95.8231056,12.0898758 C95.3661332,11.7667047 94.7807234,11.6854629 94.2530172,11.8719828 C93.197553,12.2451982 92.0265952,12.082801 91.1125339,11.436437 C90.1984726,10.7900731 89.6550821,9.740196 89.6551724,8.62068966 C89.6551724,7.66847457 88.8832496,6.89655172 87.9310345,6.89655172 L27.5862069,6.89655172 C26.6339918,6.89655172 25.862069,7.66847457 25.862069,8.62068966 C25.8598126,10.5241844 24.3172879,12.0667091 22.4137931,12.0689655 C21.461578,12.0689655 20.6896552,12.8408884 20.6896552,13.7931034 L20.6896552,36.2068966 C20.6896552,37.1591116 21.461578,37.9310345 22.4137931,37.9310345 C24.1054888,37.9327699 25.5469226,39.1596307 25.8189655,40.8293103 L19.8609914,48.2758621 L17.5431034,48.2758621 C17.3050497,48.2758621 17.112069,48.0828814 17.112069,47.8448276 L17.112069,12.0689655 C17.112069,11.1167504 16.3401461,10.3448276 15.387931,10.3448276 L12.1551724,10.3448276 C9.2805815,10.3507394 6.80696518,12.3783661 6.23706897,15.1959052 L3.82650862,27.2480603 L7.20797414,27.9243534 L9.61831897,15.8721983 C9.86271528,14.6645498 10.9230448,13.7955498 12.1551724,13.7931034 L13.6637931,13.7931034 L13.6637931,47.8448276 C13.6662871,49.9862776 15.4016534,51.7216439 17.5431034,51.7241379 L20.6896552,51.7241379 C21.2133354,51.724269 21.7086913,51.4863839 22.0359914,51.0775862 L34.8092672,35.1109914 L35.5295259,35.6256466 C40.3976049,39.0961538 41.6802272,45.7790159 38.4428879,50.8051724 C38.4364224,50.8150862 38.4301724,50.8252155 38.4241379,50.8351293 L27.8422414,68.0633621 C27.6751825,68.3346485 27.5865591,68.6469189 27.5862069,68.9655172 L27.5862069,100 L31.0344828,100 L31.0344828,83.2543103 C32.5383311,84.2788859 34.2189936,85.015966 35.9913793,85.4282328 C39.2702273,86.184098 42.7092114,85.7908212 45.7327586,84.3142241 L46.5071121,83.9353448 C47.3622779,83.5169349 47.7164602,82.4845865 47.2982759,81.6293103 L45.8418103,78.6517241 C48.9556432,79.2534755 52.1808429,78.820164 55.025431,77.4178879 L55.8,77.0390086 C56.6551658,76.6205987 57.0093482,75.5882503 56.5911638,74.7329741 L54.4056034,70.2646552 L84.6051724,78.7657328 C85.5954249,79.0446772 86.6559382,78.918686 87.553271,78.4154924 C88.4506039,77.9122989 89.1112025,77.0731495 89.3896552,76.0827586 L96.2467672,51.7241379 L101.724138,51.7241379 C102.676353,51.7241379 103.448276,50.9522151 103.448276,50 L103.448276,15.5172414 L100,15.5172414 Z M37.5338362,32.819181 L35.4849138,31.3556034 C34.7396446,30.8228953 33.7079057,30.9660135 33.1357759,31.6814655 L28.2778017,37.7538793 C27.3412323,36.2422653 25.8588065,35.1491027 24.137931,34.7010776 L24.137931,15.2989224 C26.5648796,14.6669767 28.4601901,12.7717487 29.0922414,10.3448276 L86.425,10.3448276 C87.2151738,13.3875425 89.9598083,15.5132437 93.1034483,15.5172414 L93.1034483,34.4827586 C89.2963604,34.4870344 86.2111723,37.5722225 86.2068966,41.3793103 L43.2844828,41.3793103 C42.4717566,37.9218175 40.4274417,34.8787509 37.5338362,32.819181 L37.5338362,32.819181 Z M41.3532328,52.6540948 C41.5492098,52.3484914 41.7324713,52.0385057 41.9030172,51.7241379 L85.3217672,51.7241379 L82.5661638,62.0717672 C80.0828156,62.1523749 77.831687,63.5534132 76.6627155,65.7459052 L40.1519397,54.6096983 L41.3532328,52.6540948 Z M31.0344828,78.7284483 L31.0344828,69.4528017 L33.1394397,66.0260776 L35.4211207,70.6913793 C36.6748592,73.2712548 38.6629854,75.4231337 41.1357759,76.8767241 L43.4280172,81.5635776 C39.1067747,83.2554467 34.1903825,82.1307791 31.0344828,78.7284483 L31.0344828,78.7284483 Z M52.7213362,74.6689655 C47.2791868,76.8285516 41.0917246,74.4356281 38.51875,69.1762931 L36.5989224,65.2510776 L49.9534483,69.0103448 L52.7213362,74.6689655 Z M86.0711207,75.1471983 C86.0400895,75.2572327 85.966615,75.3504315 85.8668633,75.4062893 C85.7671115,75.4621471 85.6492548,75.4760874 85.5392241,75.4450431 L35.9314655,61.480819 L38.2868534,57.6461207 L77.2012931,69.5153017 C77.6623894,69.6559566 78.1613134,69.5971457 78.5770667,69.3531318 C78.99282,69.1091178 79.2874269,68.7021895 79.3894397,68.2310345 C79.5843056,67.3371787 80.1263875,66.557395 80.8963585,66.0633347 C81.6663294,65.5692744 82.6010733,65.4014367 83.4948276,65.5967672 C84.3950231,65.7929796 85.2902032,65.2459568 85.5262931,64.3553879 L88.8903017,51.7241379 L92.6644397,51.7241379 L86.0711207,75.1471983 Z" id="Shape" fill="#000000"></path>
        </g>
    </g>
</svg>