<?xml version="1.0" encoding="UTF-8"?>
<svg width="139px" height="139px" viewBox="0 0 139 139" version="1.1" xmlns="http://www.w3.org/2000/svg" xmlns:xlink="http://www.w3.org/1999/xlink">
    <title>insurance</title>
    <g id="Page-1" stroke="none" stroke-width="1" fill="none" fill-rule="evenodd">
        <g id="insurance" fill-rule="nonzero">
            <polygon id="Path" fill="#2D5177" points="69.5 0 65.4277344 0 65.4277344 12.2167969 69.5 12.2167969 73.5722656 12.2167969 73.5722656 0"></polygon>
            <polygon id="Path" fill="#32405D" points="69.5 0 73.5722656 0 73.5722656 12.2167969 69.5 12.2167969"></polygon>
            <path d="M81.7167969,118.638672 L81.7167969,126.783203 C81.7167969,129.030008 79.8913359,130.855469 77.6445312,130.855469 C75.3977266,130.855469 73.5722656,129.030008 73.5722656,126.783203 L73.5722656,69.2285156 L69.5,69.2285156 L65.4277344,69.2285156 L65.4277344,126.783203 C65.4277344,130.379828 67.0189043,133.58443 69.5,135.822547 C71.6664453,137.776148 74.5042715,139 77.6445312,139 C84.3811445,139 89.8613281,133.519816 89.8613281,126.783203 L89.8613281,118.638672 L81.7167969,118.638672 Z" id="Path" fill="#2D5177"></path>
            <path d="M89.8613281,126.783203 L89.8613281,118.638672 L81.7167969,118.638672 L81.7167969,126.783203 C81.7167969,129.030008 79.8913359,130.855469 77.6445312,130.855469 C75.3977266,130.855469 73.5722656,129.030008 73.5722656,126.783203 L73.5722656,69.2285156 L69.5,69.2285156 L69.5,135.822547 C71.6664453,137.776148 74.5042715,139 77.6445312,139 C84.3811445,139 89.8613281,133.519816 89.8613281,126.783203 Z" id="Path" fill="#32405D"></path>
            <g id="Group" transform="translate(0.000000, 8.144531)">
                <path d="M0,65.15625 L0.00407226562,71.7180273 L5.88985352,68.8030996 C5.96125391,68.7631914 13.5858926,65.15625 20.6328125,65.15625 C25.8863066,65.15625 32.0978691,70.1789824 34.046584,72.1116797 L36.974,74.9074258 L69.5,0 C30.0340449,0 0,28.0128438 0,65.15625 Z" id="Path" fill="#F03800"></path>
                <path d="M69.5,0 L102.026,74.9074258 L104.953416,72.1116797 C106.902131,70.1789824 113.113693,65.15625 118.367188,65.15625 C125.414107,65.15625 133.038746,68.7631914 133.110418,68.8030996 L139,71.7220996 L139,65.15625 C139,28.0128438 108.965955,0 69.5,0 Z" id="Path" fill="#CD0000"></path>
            </g>
            <path d="M69.5,8.14453125 C51.8578594,8.14453125 37.5272852,41.4714102 36.974,83.051957 L39.797166,80.2562109 C41.7458809,78.3235137 47.9574434,73.3007812 53.2109375,73.3007812 C58.4644316,73.3007812 64.6759941,78.3235137 66.624709,80.2562109 L69.5,83.0997383 L69.5040723,83.1038105 L72.375291,80.2564824 C74.3240059,78.3235137 80.5355684,73.3007812 85.7890625,73.3007812 C91.0425566,73.3007812 97.2541191,78.3235137 99.202834,80.2562109 L102.026,83.051957 C101.472715,41.4714102 87.1421406,8.14453125 69.5,8.14453125 Z" id="Path" fill="#FF641A"></path>
            <path d="M72.375291,80.2562109 C74.3240059,78.3235137 80.5355684,73.3007812 85.7890625,73.3007812 C91.0425566,73.3007812 97.2541191,78.3235137 99.202834,80.2562109 L102.026,83.051957 C101.472715,41.4714102 87.1421406,8.14453125 69.5,8.14453125 L69.5,83.0997383 L69.5040723,83.1038105 L72.375291,80.2562109 Z" id="Path" fill="#F03800"></path>
        </g>
    </g>
</svg>