<?xml version="1.0" encoding="UTF-8"?>
<svg width="139px" height="139px" viewBox="0 0 139 139" version="1.1" xmlns="http://www.w3.org/2000/svg" xmlns:xlink="http://www.w3.org/1999/xlink">
    <title>small</title>
    <g id="Page-1" stroke="none" stroke-width="1" fill="none" fill-rule="evenodd">
        <g id="small" fill-rule="nonzero">
            <path d="M119.0577,132.288982 L20.2132554,132.288982 C18.7739415,132.288982 17.6120858,131.127127 17.6120858,129.687813 L17.6120858,39.8318545 C17.6120858,38.6468772 18.4097778,37.6121897 19.5600728,37.3173905 L118.404517,11.5311293 C119.179088,11.3288161 120.011462,11.496447 120.647303,11.9935595 C121.283145,12.4791111 121.658869,13.2421209 121.658869,14.0455932 L121.658869,129.687813 C121.658869,131.121346 120.497014,132.288982 119.0577,132.288982 L119.0577,132.288982 Z" id="Path" fill="#CFD8DC"></path>
            <path d="M106.705034,103.306173 L71.589245,103.306173 C69.4562859,103.306173 67.6874906,105.074968 67.6874906,107.207927 L67.6874906,133.219623 C67.6874906,135.352582 69.4562859,137.121378 71.589245,137.121378 L106.705034,137.121378 C108.837994,137.121378 110.606789,135.352582 110.606789,133.219623 L110.606789,107.207927 C110.601008,105.074968 108.832213,103.306173 106.705034,103.306173 Z" id="Path" fill="#FFA726"></path>
            <path d="M67.6874906,103.306173 L32.5659207,103.306173 C30.4329617,103.306173 28.6641663,105.074968 28.6641663,107.207927 L28.6641663,133.219623 C28.6641663,135.352582 30.4329617,137.121378 32.5659207,137.121378 L67.6817102,137.121378 C69.8146693,137.121378 71.5834646,135.352582 71.5834646,133.219623 L71.5834646,107.207927 C71.5834646,105.074968 69.8146693,103.306173 67.6874906,103.306173 L67.6874906,103.306173 Z" id="Path" fill="#FFB74D"></path>
            <path d="M86.5430799,65.7337232 L52.7278752,65.7337232 C50.5949162,65.7337232 48.8261209,67.5025185 48.8261209,69.6354776 L48.8261209,95.6471735 C48.8261209,97.7801326 50.5949162,99.5489279 52.7278752,99.5489279 L86.5430799,99.5489279 C88.676039,99.5489279 90.4448343,97.7801326 90.4448343,95.6471735 L90.4448343,69.6354776 C90.4448343,67.5025185 88.676039,65.7337232 86.5430799,65.7337232 Z" id="Path" fill="#FFCC80"></path>
            <path d="M108.653021,139 L69.6354776,139 C67.2424016,139 65.3001949,137.057793 65.3001949,134.664717 L65.3001949,102.872645 C65.3001949,100.479569 67.2424016,98.5373619 69.6354776,98.5373619 L108.653021,98.5373619 C111.046097,98.5373619 112.988304,100.479569 112.988304,102.872645 L112.988304,134.664717 C112.988304,137.057793 111.046097,139 108.653021,139 Z M73.9707602,130.329435 L104.317739,130.329435 L104.317739,107.207927 L73.9707602,107.207927 L73.9707602,130.329435 Z" id="Shape" fill="#000000"></path>
            <path d="M88.4217024,107.207927 L50.8492528,107.207927 C48.4561767,107.207927 46.5139701,105.265721 46.5139701,102.872645 L46.5139701,68.1903834 C46.5139701,65.7973073 48.4561767,63.8551007 50.8492528,63.8551007 L88.4217024,63.8551007 C90.8147784,63.8551007 92.7569851,65.7973073 92.7569851,68.1903834 L92.7569851,102.872645 C92.7569851,105.265721 90.8147784,107.207927 88.4217024,107.207927 Z M55.1845354,98.5373619 L84.0864198,98.5373619 L84.0864198,72.525666 L55.1845354,72.525666 L55.1845354,98.5373619 Z" id="Shape" fill="#000000"></path>
            <path d="M69.6354776,139 L30.6179337,139 C28.2248577,139 26.2826511,137.057793 26.2826511,134.664717 L26.2826511,102.872645 C26.2826511,100.479569 28.2248577,98.5373619 30.6179337,98.5373619 L69.6354776,98.5373619 C72.0285536,98.5373619 73.9707602,100.479569 73.9707602,102.872645 L73.9707602,134.664717 C73.9707602,137.057793 72.0285536,139 69.6354776,139 Z M34.9532164,130.329435 L65.3001949,130.329435 L65.3001949,107.207927 L34.9532164,107.207927 L34.9532164,130.329435 Z" id="Shape" fill="#000000"></path>
            <path d="M69.6354776,81.1962313 C67.2424016,81.1962313 65.3001949,79.2540247 65.3001949,76.8609487 L65.3001949,68.1903834 C65.3001949,65.7973073 67.2424016,63.8551007 69.6354776,63.8551007 C72.0285536,63.8551007 73.9707602,65.7973073 73.9707602,68.1903834 L73.9707602,76.8609487 C73.9707602,79.2540247 72.0285536,81.1962313 69.6354776,81.1962313 Z" id="Path" fill="#000000"></path>
            <path d="M50.8492528,115.878493 C48.4561767,115.878493 46.5139701,113.936286 46.5139701,111.54321 L46.5139701,102.872645 C46.5139701,100.479569 48.4561767,98.5373619 50.8492528,98.5373619 C53.2423288,98.5373619 55.1845354,100.479569 55.1845354,102.872645 L55.1845354,111.54321 C55.1845354,113.936286 53.2423288,115.878493 50.8492528,115.878493 Z" id="Path" fill="#000000"></path>
            <path d="M88.4217024,115.878493 C86.0286264,115.878493 84.0864198,113.936286 84.0864198,111.54321 L84.0864198,102.872645 C84.0864198,100.479569 86.0286264,98.5373619 88.4217024,98.5373619 C90.8147784,98.5373619 92.7569851,100.479569 92.7569851,102.872645 L92.7569851,111.54321 C92.7569851,113.936286 90.8147784,115.878493 88.4217024,115.878493 Z" id="Path" fill="#000000"></path>
            <path d="M4.60045744,40.7335932 C2.65247044,40.7335932 0.877894737,39.4098869 0.39234308,37.4272177 C-0.174133853,35.1035062 1.25361923,32.7566732 3.57733073,32.1844159 L133.63581,0.39234308 C135.93062,-0.174133853 138.306355,1.24783886 138.872832,3.57155036 C139.439309,5.89526186 138.017336,8.24787524 135.693624,8.82013255 L5.6351449,40.6122053 C5.28832229,40.6931306 4.94728005,40.7335932 4.60045744,40.7335932 Z" id="Path" fill="#000000"></path>
            <path d="M123.103964,139 L16.1669916,139 C13.7739155,139 11.8317089,137.057793 11.8317089,134.664717 L11.8317089,34.5543704 C11.8317089,32.1612943 13.7739155,30.2190877 16.1669916,30.2190877 C18.5600676,30.2190877 20.5022742,32.1612943 20.5022742,34.5543704 L20.5022742,130.329435 L118.768681,130.329435 L118.768681,9.06868876 C118.768681,6.67561274 120.710888,4.73340611 123.103964,4.73340611 C125.49704,4.73340611 127.439246,6.67561274 127.439246,9.06868876 L127.439246,134.664717 C127.439246,137.057793 125.49704,139 123.103964,139 Z" id="Path" fill="#000000"></path>
            <path d="M30.6179337,33.1323977 C28.2248577,33.1323977 26.2826511,31.190191 26.2826511,28.797115 L26.2826511,10.3866147 C26.2826511,7.99353866 28.2248577,6.05133203 30.6179337,6.05133203 C33.0110097,6.05133203 34.9532164,7.99353866 34.9532164,10.3866147 L34.9532164,28.797115 C34.9532164,31.190191 33.0110097,33.1323977 30.6179337,33.1323977 Z" id="Path" fill="#000000"></path>
        </g>
    </g>
</svg>