<?xml version="1.0" encoding="UTF-8"?>
<svg width="93px" height="100px" viewBox="0 0 93 100" version="1.1" xmlns="http://www.w3.org/2000/svg" xmlns:xlink="http://www.w3.org/1999/xlink">
    <title>medal (1)</title>
    <g id="Page-1" stroke="none" stroke-width="1" fill="none" fill-rule="evenodd">
        <g id="medal-(1)" fill-rule="nonzero">
            <circle id="Oval" fill="#FFD15C" cx="45.9744094" cy="39.7047244" r="39.7047244"></circle>
            <g id="Group" transform="translate(0.000000, 62.795276)" fill="#40596B">
                <path d="M13.8090551,0.137795276 L0.147637795,23.8188976 L16.0925197,22.9724409 L23.3366142,37.2047244 L35.9744094,15.2952756 C26.9192913,12.9527559 19.1437008,7.5 13.8090551,0.137795276 Z" id="Path"></path>
                <path d="M78.2185039,0.0196850394 C72.9232283,7.4015748 65.1476378,12.8740157 56.1122047,15.2559055 L68.7893701,37.2047244 L76.0334646,22.9724409 L91.9783465,23.8188976 L78.2185039,0.0196850394 Z" id="Path"></path>
            </g>
            <circle id="Oval" fill="#F8B64C" cx="45.9744094" cy="39.7047244" r="28.7795276"></circle>
            <path d="M65.6988189,36.5944882 C66.5846457,35.7283465 66.0925197,34.2125984 64.8720472,34.0354331 L53.5137795,32.3818898 C53.0216535,32.3031496 52.6082677,32.007874 52.3917323,31.5551181 L47.3129921,21.2598425 C46.761811,20.1377953 45.1673228,20.1377953 44.6161417,21.2598425 L39.5570866,31.5551181 C39.3405512,31.988189 38.9074803,32.3031496 38.4350394,32.3818898 L27.0767717,34.0354331 C25.8562992,34.2125984 25.3641732,35.7283465 26.25,36.5944882 L34.4586614,44.6062992 C34.8129921,44.9606299 34.9704724,45.4527559 34.8917323,45.9251969 L32.9625984,57.2244094 C32.746063,58.4448819 34.0452756,59.3897638 35.1476378,58.7992126 L45.3051181,53.4645669 C45.738189,53.2283465 46.269685,53.2283465 46.7027559,53.4645669 L56.8602362,58.7992126 C57.9625984,59.3700787 59.242126,58.4448819 59.0452756,57.2244094 L57.0964567,45.9251969 C57.0177165,45.4330709 57.1751969,44.9409449 57.5295276,44.6062992 L65.6988189,36.5944882 Z" id="Path" fill="#FFFFFF"></path>
        </g>
    </g>
</svg>