<?xml version="1.0" encoding="UTF-8"?>
<svg width="100px" height="100px" viewBox="0 0 100 100" version="1.1" xmlns="http://www.w3.org/2000/svg" xmlns:xlink="http://www.w3.org/1999/xlink">
    <title>customer-service</title>
    <g id="Page-1" stroke="none" stroke-width="1" fill="none" fill-rule="evenodd">
        <g id="customer-service" fill-rule="nonzero">
            <g id="Group">
                <g transform="translate(56.445312, 61.718750)" id="Path">
                    <path d="M32.4005859,0.0396484375 C31.5671875,0.0396484375 30.8916016,0.715234375 30.8916016,1.54863281 L30.8916016,22.7580078 C30.8916016,28.0667969 26.5576172,32.3855469 21.2304688,32.3855469 L8.58085938,32.3855469 C7.74746094,32.3855469 7.071875,33.0611328 7.071875,33.8945312 C7.071875,34.7279297 7.74746094,35.4035156 8.58085938,35.4035156 L21.2304688,35.4035156 C28.221875,35.4035156 33.9097656,29.7306641 33.9097656,22.7578125 L33.9097656,1.54882812 C33.9097656,0.715234375 33.2339844,0.0396484375 32.4005859,0.0396484375 L32.4005859,0.0396484375 Z" fill="#D9DDFF"></path>
                    <path d="M4.51074219,38.28125 L12.5234375,38.28125 C14.9164063,38.28125 16.85625,36.3414062 16.85625,33.9484375 C16.85625,31.5554687 14.9164063,29.615625 12.5234375,29.615625 L4.51074219,29.615625 C2.11777344,29.615625 0.177929688,31.5554687 0.177929688,33.9484375 C0.177929688,36.3414062 2.11777344,38.28125 4.51074219,38.28125 Z" fill="#7776D0"></path>
                </g>
                <g id="Path">
                    <path d="M95.6859375,73.9310547 L88.9822266,73.9310547 L88.9822266,45.7033203 C88.9822266,24.2015625 71.5015625,6.70859375 50.0150391,6.70859375 C28.5285156,6.70859375 11.0476562,24.2015625 11.0476562,45.7033203 L11.0476562,73.9310547 L4.34375,73.9310547 L4.34375,45.7033203 C4.34375,20.5025391 24.8318359,-5.55111512e-15 50.0148438,-5.55111512e-15 C75.1980469,-5.55111512e-15 95.6859375,20.5025391 95.6859375,45.7033203 L95.6859375,73.9310547 Z" fill="#D9DDFF"></path>
                    <g transform="translate(0.000000, 40.429688)">
                        <g>
                            <path d="M15.3464844,4.52539062 L8.53183594,4.52539062 C3.81992188,4.52539062 0,8.3453125 0,13.0572266 L0,27.6392578 C0,32.3511719 3.81992188,36.1710938 8.53183594,36.1710938 L15.3464844,36.1710938 L15.3464844,4.52539062 Z" fill="#7776D0"></path>
                            <path d="M15.3464844,0.0703125 C17.6619141,0.0703125 19.5388672,1.94726563 19.5388672,4.26269531 L19.5388672,35.9158203 C19.5388672,38.23125 17.6619141,40.1082031 15.3464844,40.1082031 C13.0310547,40.1082031 11.1541016,38.23125 11.1541016,35.9158203 L11.1541016,4.26269531 C11.1541016,1.94746094 13.0310547,0.0703125 15.3464844,0.0703125 Z" fill="#E8F3FF"></path>
                        </g>
                        <g transform="translate(80.273438, 0.000000)">
                            <path d="M4.38007812,35.653125 L11.1947266,35.653125 C15.9066406,35.653125 19.7265625,31.8332031 19.7265625,27.1212891 L19.7265625,12.5392578 C19.7265625,7.82734375 15.9066406,4.00742188 11.1947266,4.00742188 L4.38007812,4.00742188 L4.38007812,35.653125 Z" fill="#7776D0"></path>
                            <path d="M4.38007812,40.1082031 C2.06464844,40.1082031 0.187695313,38.23125 0.187695313,35.9158203 L0.187695313,4.26269531 C0.187695313,1.94726563 2.06464844,0.0703125 4.38007812,0.0703125 C6.69550781,0.0703125 8.57246094,1.94726563 8.57246094,4.26269531 L8.57246094,35.9158203 C8.57246094,38.23125 6.69550781,40.1082031 4.38007812,40.1082031 Z" fill="#E8F3FF"></path>
                        </g>
                    </g>
                </g>
            </g>
            <g id="Group" transform="translate(28.710938, 39.648438)">
                <path d="M21.2890625,0.139257812 C32.9705078,0.139257812 42.4402344,9.60722656 42.4402344,21.2865234 C42.4402344,27.4447266 39.8066406,32.9873047 35.6050781,36.8523437 L35.6050781,42.428125 L30.5617187,40.2974609 C27.7617187,41.6652344 24.6154297,42.4337891 21.2892578,42.4337891 C9.6078125,42.4337891 0.138085937,32.9658203 0.138085937,21.2865234 C0.138085937,9.60722656 9.60761719,0.139257812 21.2890625,0.139257812 Z" id="Path" fill="#049BF8"></path>
                <path d="M21.2890625,0.139257812 C19.9130859,0.139257812 18.5677734,0.270703125 17.2648438,0.521679687 C27.0216797,2.40058594 34.3917969,10.9830078 34.3917969,21.2867187 C34.3917969,31.3775391 26.8263672,40.115625 17.2066406,42.0404297 C18.5275391,42.2986328 19.8923828,42.4341797 21.2890625,42.4341797 C24.6152344,42.4341797 27.7615234,41.665625 30.5615234,40.2978516 L35.6048828,42.4285156 L35.6048828,36.8527344 C39.8064453,32.9878906 42.4400391,27.4453125 42.4400391,21.2869141 C42.4400391,9.60722656 32.9705078,0.139257812 21.2890625,0.139257812 Z" id="Path" fill="#45A7E4"></path>
                <g transform="translate(11.328125, 11.132812)" fill="#FFFFFF" id="Path">
                    <path d="M5.92460938,3.19863281 L13.9972656,3.19863281 C14.8306641,3.19863281 15.50625,2.52304688 15.50625,1.68964844 C15.50625,0.85625 14.8306641,0.180664063 13.9972656,0.180664063 L5.92460938,0.180664063 C5.09121094,0.180664063 4.415625,0.85625 4.415625,1.68964844 C4.415625,2.52304688 5.09121094,3.19863281 5.92460938,3.19863281 Z"></path>
                    <path d="M13.9972656,17.1087891 L5.92460938,17.1087891 C5.09121094,17.1087891 4.415625,17.784375 4.415625,18.6177734 C4.415625,19.4511719 5.09121094,20.1267578 5.92460938,20.1267578 L13.9972656,20.1267578 C14.8306641,20.1267578 15.50625,19.4511719 15.50625,18.6177734 C15.50625,17.784375 14.8306641,17.1087891 13.9972656,17.1087891 Z"></path>
                    <path d="M18.3160156,8.64472656 L1.60585938,8.64472656 C0.772460938,8.64472656 0.096875,9.3203125 0.096875,10.1537109 C0.096875,10.9871094 0.772460938,11.6626953 1.60585938,11.6626953 L18.3160156,11.6626953 C19.1494141,11.6626953 19.825,10.9871094 19.825,10.1537109 C19.825,9.3203125 19.1494141,8.64472656 18.3160156,8.64472656 Z"></path>
                </g>
            </g>
            <g id="Group" transform="translate(53.515625, 0.000000)">
                <path d="M18.1230469,-5.55111512e-15 C8.184375,-5.55111512e-15 0.127539063,8.05527344 0.127539063,17.9921875 C0.127539063,23.2316406 2.36816406,27.9472656 5.94296875,31.2355469 L5.94296875,35.9794922 L10.2339844,34.1667969 C12.6162109,35.3304687 15.2931641,35.984375 18.1230469,35.984375 C28.0617188,35.984375 36.1185547,27.9289063 36.1185547,17.9921875 C36.1185547,8.05527344 28.0617188,-5.55111512e-15 18.1230469,-5.55111512e-15 Z" id="Path" fill="#FFD54D"></path>
                <path d="M18.1230469,0 C16.7396484,0 15.3927734,0.15625 14.0988281,0.4515625 C22.1,2.27890625 28.0701172,9.43847656 28.0701172,17.9919922 C28.0701172,26.5453125 22.1005859,33.7044922 14.0998047,35.5322266 C15.3933594,35.8277344 16.7398438,35.9841797 18.1230469,35.9841797 C28.0615234,35.9841797 36.1185547,27.9287109 36.1185547,17.9919922 C36.1185547,8.05527344 28.0617188,0 18.1230469,0 Z" id="Path" fill="#FFC919"></path>
                <g transform="translate(11.523438, 6.445312)" fill="#FFFFFF" id="Path">
                    <path d="M13.0365234,6.13417969 C12.8625,2.77929687 10.0931641,0.0982421875 6.73183594,0.03046875 C3.4625,-0.03203125 0.66640625,2.34960937 0.216015625,5.57753906 C0.174804687,5.87285156 0.15390625,6.17480469 0.15390625,6.475 C0.15390625,7.30839844 0.829492188,7.98398437 1.66289063,7.98398437 C2.49628906,7.98398437 3.171875,7.30839844 3.171875,6.475 C3.171875,6.3140625 3.18300781,6.15253906 3.20507813,5.99492187 C3.44433594,4.27988281 4.93867188,3.01015625 6.67089844,3.04785156 C8.45761719,3.08398437 9.92988281,4.50820312 10.0222656,6.29042969 C10.0716797,7.24199219 9.73886719,8.14511719 9.08496094,8.83378906 C8.43066406,9.52304687 7.54785156,9.90253906 6.59941406,9.90253906 C5.76601563,9.90253906 5.09042969,10.578125 5.09042969,11.4115234 L5.09042969,16.5738281 C5.09042969,17.4072266 5.76601563,18.0828125 6.59941406,18.0828125 C7.4328125,18.0828125 8.10839844,17.4072266 8.10839844,16.5738281 L8.10839844,12.7398437 C9.30683594,12.4492187 10.4140625,11.8175781 11.2736328,10.9121094 C12.5033203,9.6171875 13.1292969,7.9203125 13.0365234,6.13417969 L13.0365234,6.13417969 Z"></path>
                    <path d="M6.59960938,20.2457031 C4.65761719,20.2457031 4.65429688,23.2638672 6.59960938,23.2638672 C8.54160156,23.2638672 8.54492188,20.2457031 6.59960938,20.2457031 Z"></path>
                </g>
            </g>
        </g>
    </g>
</svg>