<?xml version="1.0" encoding="UTF-8"?>
<svg width="139px" height="139px" viewBox="0 0 139 139" version="1.1" xmlns="http://www.w3.org/2000/svg" xmlns:xlink="http://www.w3.org/1999/xlink">
    <title>delivery-man (1)</title>
    <g id="Page-1" stroke="none" stroke-width="1" fill="none" fill-rule="evenodd">
        <g id="delivery-man-(1)" fill-rule="nonzero">
            <path d="M2.31666667,34.75 L113.516667,34.75 L113.516667,108.883333 C113.516667,111.442253 111.442253,113.516667 108.883333,113.516667 L6.95,113.516667 C4.39108066,113.516667 2.31666667,111.442253 2.31666667,108.883333 L2.31666667,34.75 Z" id="Path" fill="#A97C50"></path>
            <path d="M120.466667,136.683333 L62.5499386,136.683333 C62.534486,129.306175 65.4610823,122.227313 70.6815,117.014833 C71.8222361,115.862716 73.0712799,114.823139 74.4113333,113.9105 C79.0760676,110.625942 84.6449255,108.869485 90.35,108.883252 L99.6166667,118.15 L108.883333,108.883252 C124.236849,108.883252 136.683333,121.329817 136.683333,136.683333 L120.466667,136.683333 Z" id="Path" fill="#FAD000"></path>
            <path d="M81.0833333,74.1333333 L81.0833333,83.4 L78.7666667,83.4 C76.2156257,83.3810793 74.1522541,81.3177077 74.1333333,78.7666667 C74.1409663,76.2109157 76.2109157,74.1409663 78.7666667,74.1333333 L81.0833333,74.1333333 Z" id="Path" fill="#F1CFA2"></path>
            <path d="M120.466667,74.1333333 C123.022418,74.1409663 125.092367,76.2109157 125.1,78.7666667 C125.081079,81.3177077 123.017708,83.3810793 120.466667,83.4 L118.15,83.4 L118.15,74.1333333 L120.466667,74.1333333 Z" id="Path" fill="#F1CFA2"></path>
            <polygon id="Path" fill="#FFDAAA" points="108.883333 99.6166667 108.883333 108.883333 99.6166667 118.15 90.35 108.883333 90.35 99.6166667"></polygon>
            <path d="M118.15,73.6236667 L118.15,90.35 C118.15,95.4678387 114.001172,99.6166667 108.883333,99.6166667 L90.35,99.6166667 C85.2321613,99.6166667 81.0833333,95.4678387 81.0833333,90.35 L81.0833333,73.6236667 C82.427,73.2066667 95.0991667,69.5 99.6166667,69.5 C104.134167,69.5 116.806333,73.2066667 118.15,73.6236667 Z" id="Path" fill="#FFDAAA"></path>
            <path d="M100.543333,62.6426667 L120.119167,64.5886667 L120.466667,64.6581667 C121.060456,64.8072556 121.570324,65.186885 121.883388,65.7130067 C122.196452,66.2391284 122.286886,66.8683387 122.134667,67.4613333 L121.022667,71.9556667 C120.707015,73.1682737 119.489828,73.9149514 118.265833,73.6468333 C118.229306,73.6309709 118.189818,73.6230734 118.15,73.6236667 C116.806333,73.2066667 104.134167,69.5 99.6166667,69.5 C95.0991667,69.5 82.427,73.2066667 81.0833333,73.6236667 C81.043515,73.6230734 81.0040272,73.6309709 80.9675,73.6468333 C79.7435049,73.9149514 78.5263179,73.1682737 78.2106667,71.9556667 L77.0986667,67.4613333 C76.9464478,66.8683387 77.0368812,66.2391284 77.3499454,65.7130067 C77.6630095,65.186885 78.1728774,64.8072556 78.7666667,64.6581667 L79.1141667,64.5886667 L98.69,62.6426667 C99.3058233,62.5731705 99.92751,62.5731705 100.543333,62.6426667 L100.543333,62.6426667 Z" id="Path" fill="#049BF8"></path>
            <path d="M120.466667,52.82 L120.466667,64.6581667 L120.119167,64.5886667 L100.543333,62.6426667 C99.92751,62.5731705 99.3058233,62.5731705 98.69,62.6426667 L79.1141667,64.5886667 L78.7666667,64.6581667 L78.7666667,52.82 C78.772601,51.7416828 79.5217487,50.8100504 80.5736667,50.5728333 C80.5736667,50.5728333 94.7516667,46.3333333 99.6166667,46.3333333 C104.288634,46.8116353 108.904286,47.7347655 113.400833,49.0901667 C116.4125,49.901 118.659667,50.5728333 118.659667,50.5728333 C119.711585,50.8100504 120.460732,51.7416828 120.466667,52.82 Z" id="Path" fill="#049BF8"></path>
            <path d="M71.8166667,34.75 L71.8166667,46.3333333 C71.8166667,47.612793 70.7794597,48.65 69.5,48.65 L46.3333333,48.65 C45.0538737,48.65 44.0166667,47.612793 44.0166667,46.3333333 L44.0166667,2.31666667 L71.8166667,2.31666667 L71.8166667,34.75 Z" id="Path" fill="#B38C62"></path>
            <rect id="Rectangle" fill="#C49A6C" x="2.31666667" y="20.85" width="41.7" height="13.9"></rect>
            <polygon id="Path" fill="#C49A6C" points="113.516667 20.85 113.516667 34.75 71.8166667 34.75 71.8166667 25.4833333 71.8166667 20.85"></polygon>
            <path d="M44.0166667,2.31666667 L44.0166667,20.85 L2.31666667,20.85 L2.31666667,6.95 C2.32429962,4.39424901 4.39424901,2.32429962 6.95,2.31666667 L44.0166667,2.31666667 Z" id="Path" fill="#A97C50"></path>
            <path d="M113.516667,6.95 L113.516667,20.85 L71.8166667,20.85 L71.8166667,2.31666667 L108.883333,2.31666667 C111.439084,2.32429962 113.509034,4.39424901 113.516667,6.95 L113.516667,6.95 Z" id="Path" fill="#A97C50"></path>
            <rect id="Rectangle" fill="#F1CFA2" x="90.35" y="99.6166667" width="18.5333333" height="4.63333333"></rect>
            <path d="M62.55,111.2 L6.95,111.2 C5.67054033,111.2 4.63333333,110.162793 4.63333333,108.883333 L4.63333333,37.0666667 L41.7,37.0666667 L41.7,46.3333333 C41.7,48.8922527 43.774414,50.9666667 46.3333333,50.9666667 L69.5,50.9666667 C72.0589193,50.9666667 74.1333333,48.8922527 74.1333333,46.3333333 L74.1333333,37.0666667 L111.2,37.0666667 L111.2,41.7 L115.833333,41.7 L115.833333,6.95 C115.833333,3.11162099 112.721712,0 108.883333,0 L6.95,0 C3.11162099,0 0,3.11162099 0,6.95 L0,108.883333 C0,112.721712 3.11162099,115.833333 6.95,115.833333 L62.55,115.833333 L62.55,111.2 Z M4.63333333,32.4333333 L4.63333333,23.1666667 L41.7,23.1666667 L41.7,32.4333333 L4.63333333,32.4333333 Z M74.1333333,32.4333333 L74.1333333,23.1666667 L111.2,23.1666667 L111.2,32.4333333 L74.1333333,32.4333333 Z M111.2,6.95 L111.2,18.5333333 L74.1333333,18.5333333 L74.1333333,4.63333333 L108.883333,4.63333333 C110.162793,4.63333333 111.2,5.67054033 111.2,6.95 Z M69.5,4.63333333 L69.5,46.3333333 L46.3333333,46.3333333 L46.3333333,4.63333333 L69.5,4.63333333 Z M6.95,4.63333333 L41.7,4.63333333 L41.7,18.5333333 L4.63333333,18.5333333 L4.63333333,6.95 C4.63333333,5.67054033 5.67054033,4.63333333 6.95,4.63333333 Z" id="Shape" fill="#000000"></path>
            <path d="M111.2,106.6547 L111.2,101.701667 C116.589532,100.593298 120.459721,95.8523169 120.466667,90.35 L120.466667,85.7166667 C123.740547,85.7045875 126.562069,83.4093157 127.240269,80.2064285 C127.918468,77.0035412 126.269421,73.7616432 123.281417,72.4236333 L124.381833,68.0219667 C124.842072,66.2748927 124.212571,64.4219709 122.783333,63.3168167 L122.783333,52.82 C122.788301,50.7143368 121.36247,48.8743089 119.322233,48.3534667 C117.83725,47.9109833 104.67395,44.0166667 99.6166667,44.0166667 C94.5593833,44.0166667 81.3960833,47.9109833 80.0732667,48.3117667 C77.9640741,48.7890591 76.4623975,50.6575136 76.45,52.82 L76.45,63.3168167 C75.0187354,64.4225576 74.3897376,66.2785119 74.8538167,68.0266 L75.9519167,72.4282667 C72.969737,73.7694451 71.325797,77.0080446 72.0033903,80.2069541 C72.6809836,83.4058637 75.4968241,85.6997921 78.7666667,85.7166667 L78.7666667,90.35 C78.7736127,95.8523169 82.6438011,100.593298 88.0333333,101.701667 L88.0333333,106.657017 C72.3553761,107.886776 60.2540345,120.957233 60.2333333,136.683333 C60.2333333,137.962793 61.2705403,139 62.55,139 L136.683333,139 C137.962793,139 139,137.962793 139,136.683333 C138.980506,120.956342 126.878844,107.88453 111.2,106.6547 Z M92.6666667,101.933333 L106.566667,101.933333 L106.566667,107.924233 L99.6166667,114.874233 L92.6666667,107.924233 L92.6666667,101.933333 Z M80.4647833,71.3811333 L79.34815,66.9053333 L98.9239833,64.94775 C99.3862572,64.9034377 99.8517095,64.9034377 100.313983,64.94775 L119.889817,66.9053333 L119.889817,66.9053333 L118.9284,71.42515 C117.473533,70.9919333 104.588233,67.1833333 99.6166667,67.1833333 C94.6451,67.1833333 81.7598,70.9919333 80.4647833,71.3811333 Z M120.466667,81.0833333 L120.466667,76.45 C121.746126,76.45 122.783333,77.487207 122.783333,78.7666667 C122.783333,80.0461263 121.746126,81.0833333 120.466667,81.0833333 Z M99.6166667,48.65 C103.323333,48.65 114.142167,51.6408167 118.15,52.82 L118.15,62.0866667 L100.775,60.3491667 C100.0047,60.2721067 99.2286331,60.2721067 98.4583333,60.3491667 L81.1111333,62.0820333 L81.2316,52.8153667 C85.0911667,51.6408167 95.91,48.65 99.6166667,48.65 Z M76.45,78.7666667 C76.45,77.487207 77.487207,76.45 78.7666667,76.45 L78.7666667,81.0833333 C77.487207,81.0833333 76.45,80.0461263 76.45,78.7666667 Z M83.4,90.35 L83.4,75.3495833 C88.6903423,73.6943184 94.1172046,72.5120377 99.6166667,71.8166667 C105.116107,72.5109924 110.542994,73.6925031 115.833333,75.3472667 L115.833333,90.35 C115.833333,94.188379 112.721712,97.3 108.883333,97.3 L90.35,97.3 C86.511621,97.3 83.4,94.188379 83.4,90.35 Z M122.783333,134.366667 L122.783333,125.1 L118.15,125.1 L118.15,134.366667 L81.0833333,134.366667 L81.0833333,125.1 L76.45,125.1 L76.45,134.366667 L64.9709167,134.366667 C66.1583275,121.61207 76.6223239,111.717125 89.4233333,111.244017 L97.9672,119.787883 C98.871858,120.692268 100.338309,120.692268 101.242967,119.787883 L109.81,111.244017 C122.611009,111.717125 133.075006,121.61207 134.262417,134.366667 L122.783333,134.366667 Z" id="Shape" fill="#000000"></path>
            <rect id="Rectangle" fill="#000000" x="18.5333333" y="97.3" width="18.5333333" height="4.63333333"></rect>
            <rect id="Rectangle" fill="#000000" x="18.5333333" y="88.0333333" width="4.63333333" height="4.63333333"></rect>
            <rect id="Rectangle" fill="#000000" x="27.8" y="88.0333333" width="9.26666667" height="4.63333333"></rect>
            <path d="M99.6166667,92.6666667 C108.216133,92.6666667 108.883333,87.3383333 108.883333,85.7166667 L104.25,85.7166667 C104.25,86.2888833 104.25,88.0333333 99.6166667,88.0333333 C94.9833333,88.0333333 94.9833333,86.2888833 94.9833333,85.7166667 L90.35,85.7166667 C90.35,87.3383333 91.0172,92.6666667 99.6166667,92.6666667 Z" id="Path" fill="#000000"></path>
            <circle id="Oval" fill="#000000" cx="92.6666667" cy="76.45" r="2.31666667"></circle>
            <circle id="Oval" fill="#000000" cx="106.566667" cy="76.45" r="2.31666667"></circle>
        </g>
    </g>
</svg>