<?xml version="1.0" encoding="UTF-8"?>
<svg width="105px" height="100px" viewBox="0 0 105 100" version="1.1" xmlns="http://www.w3.org/2000/svg" xmlns:xlink="http://www.w3.org/1999/xlink">
    <title>check (2)</title>
    <g id="Page-1" stroke="none" stroke-width="1" fill="none" fill-rule="evenodd">
        <g id="check-(2)" fill-rule="nonzero">
            <g id="Group">
                <polygon id="Path" fill="#0D8DDB" points="104.918033 49.9970972 93.0408293 36.8103033 94.9004765 19.1563761 77.5327592 15.4797568 68.6735842 0.0896586269 52.459119 7.3364146 50.2705868 49.9970972 52.459119 92.6575746 68.6737893 99.9043306 77.5327592 84.5144375 94.9004765 80.8376132 93.0408293 63.1836859"></polygon>
                <polygon id="Path" fill="#049BF8" points="36.2442435 0.0896586269 27.3852736 15.4797568 10.0175563 19.1565812 11.8772035 36.8103033 1.45780975e-15 49.9970972 11.8772035 63.1836859 10.0175563 80.8376132 27.3852736 84.5144375 36.2444486 99.9043306 52.459119 92.6575746 52.459119 7.3364146"></polygon>
            </g>
            <g id="Group" transform="translate(29.749430, 34.263137)">
                <polygon id="Path" fill="#F7F0EB" points="44.7016987 4.24739793 40.1098228 0.14874715 22.709689 19.6430357 20.5211568 24.4876791 22.709689 28.8862862"></polygon>
                <polygon id="Path" fill="#FFFBF5" points="4.42343248 11.0985891 0.0713986319 15.4508281 18.3693498 33.7489844 22.709689 28.8862862 22.709689 19.6430357 18.1153512 24.7903026"></polygon>
            </g>
        </g>
    </g>
</svg>