<?xml version="1.0" encoding="UTF-8"?>
<svg width="99px" height="100px" viewBox="0 0 99 100" version="1.1" xmlns="http://www.w3.org/2000/svg" xmlns:xlink="http://www.w3.org/1999/xlink">
    <title>ic_warehouse</title>
    <g id="Page-1" stroke="none" stroke-width="1" fill="none" fill-rule="evenodd">
        <g id="Group" fill-rule="nonzero">
            <g id="ic_warehouse">
                <polygon id="Path" fill="#0093B9" points="91.8032787 14.7540984 91.8032787 98.3606557 6.55737705 98.3606557 6.55737705 14.7540984 49.1803279 4.91803279"></polygon>
                <polygon id="Path" fill="#E3E4E2" points="19.6721311 32.7868852 78.6885246 32.7868852 78.6885246 98.3606557 19.6721311 98.3606557"></polygon>
                <polygon id="Path" fill="#0884A9" points="91.8032787 14.7540984 91.8032787 21.8586066 49.1803279 11.5696721 6.55737705 21.8586066 6.55737705 14.7540984 49.1803279 4.91803279"></polygon>
                <rect id="Rectangle" fill="#57C3C1" transform="translate(49.180328, 21.311475) rotate(-180.000000) translate(-49.180328, -21.311475) " x="42.6229508" y="18.0327869" width="13.1147541" height="6.55737705" rx="3.27868852"></rect>
                <polygon id="Path" fill="#E3E4E2" points="96.7213115 13.1147541 49.1803279 1.63934426 1.63934426 13.1147541 1.63934426 19.6721311 49.1803279 8.19672131 96.7213115 19.6721311"></polygon>
                <polygon id="Path" fill="#C9C9C8" points="19.6721311 32.7868852 78.6885246 32.7868852 78.6885246 60.6557377 19.6721311 60.6557377"></polygon>
                <polygon id="Path" fill="#F8BC1E" points="60.6557377 98.3606557 60.6557377 72.1311475 31.147541 72.1311475 31.147541 45.9016393 1.63934426 45.9016393 1.63934426 98.3606557"></polygon>
                <polygon id="Path" fill="#F9DA62" points="40.9836066 72.1311475 50.8196721 72.1311475 50.8196721 81.9672131 40.9836066 81.9672131"></polygon>
                <path d="M60.6557377,73.7704918 L58.1967213,73.7704918 C56.8386441,73.7704918 55.7377049,74.8714309 55.7377049,76.2295082 L55.7377049,80.3903689 C55.7371391,87.5986954 49.8937773,93.4420572 42.6854508,93.442623 L35.2459016,93.442623 C33.8878244,93.442623 32.7868852,94.5435621 32.7868852,95.9016393 L32.7868852,98.3606557 L60.6557377,98.3606557 L60.6557377,73.7704918 Z" id="Path" fill="#F5A922"></path>
                <polygon id="Path" fill="#F9DA62" points="11.4754098 72.1311475 21.3114754 72.1311475 21.3114754 81.9672131 11.4754098 81.9672131"></polygon>
                <path d="M31.147541,73.7704918 L28.6885246,73.7704918 C27.3304473,73.7704918 26.2295082,74.8714309 26.2295082,76.2295082 L26.2295082,80.3903689 C26.2289424,87.5986954 20.3855806,93.4420572 13.1772541,93.442623 L5.73770492,93.442623 C4.37962766,93.442623 3.27868852,94.5435621 3.27868852,95.9016393 L3.27868852,98.3606557 L31.147541,98.3606557 L31.147541,73.7704918 Z" id="Path" fill="#F5A922"></path>
                <polygon id="Path" fill="#F9DA62" points="11.4754098 45.9016393 21.3114754 45.9016393 21.3114754 55.7377049 11.4754098 55.7377049"></polygon>
                <path d="M31.147541,47.5409836 L28.6885246,47.5409836 C27.3304473,47.5409836 26.2295082,48.6419227 26.2295082,50 L26.2295082,54.1608607 C26.2289424,61.3691872 20.3855806,67.212549 13.1772541,67.2131148 L5.73770492,67.2131148 C4.37962766,67.2131148 3.27868852,68.3140539 3.27868852,69.6721311 L3.27868852,72.1311475 L31.147541,72.1311475 L31.147541,47.5409836 Z" id="Path" fill="#F5A922"></path>
                <polygon id="Path" fill="#000000" points="22.9508197 90.1639344 26.2295082 90.1639344 26.2295082 93.442623 22.9508197 93.442623"></polygon>
                <path d="M60.6557377,70.4918033 L32.7868852,70.4918033 L32.7868852,45.9016393 C32.7868852,44.9962545 32.0529258,44.2622951 31.147541,44.2622951 L1.63934426,44.2622951 C0.733959427,44.2622951 0,44.9962545 0,45.9016393 L0,98.3606557 C0,99.2660406 0.733959427,100 1.63934426,100 L60.6557377,100 C61.5611225,100 62.295082,99.2660406 62.295082,98.3606557 L62.295082,72.1311475 C62.295082,71.2257627 61.5611225,70.4918033 60.6557377,70.4918033 Z M42.6229508,73.7704918 L49.1803279,73.7704918 L49.1803279,80.3278689 L42.6229508,80.3278689 L42.6229508,73.7704918 Z M13.1147541,47.5409836 L19.6721311,47.5409836 L19.6721311,54.0983607 L13.1147541,54.0983607 L13.1147541,47.5409836 Z M3.27868852,47.5409836 L9.83606557,47.5409836 L9.83606557,55.7377049 C9.83606557,56.6430898 10.570025,57.3770492 11.4754098,57.3770492 L21.3114754,57.3770492 C22.2168602,57.3770492 22.9508197,56.6430898 22.9508197,55.7377049 L22.9508197,47.5409836 L29.5081967,47.5409836 L29.5081967,70.4918033 L3.27868852,70.4918033 L3.27868852,47.5409836 Z M13.1147541,73.7704918 L19.6721311,73.7704918 L19.6721311,80.3278689 L13.1147541,80.3278689 L13.1147541,73.7704918 Z M3.27868852,73.7704918 L9.83606557,73.7704918 L9.83606557,81.9672131 C9.83606557,82.872598 10.570025,83.6065574 11.4754098,83.6065574 L21.3114754,83.6065574 C22.2168602,83.6065574 22.9508197,82.872598 22.9508197,81.9672131 L22.9508197,73.7704918 L29.5081967,73.7704918 L29.5081967,96.7213115 L3.27868852,96.7213115 L3.27868852,73.7704918 Z M59.0163934,96.7213115 L32.7868852,96.7213115 L32.7868852,73.7704918 L39.3442623,73.7704918 L39.3442623,81.9672131 C39.3442623,82.872598 40.0782217,83.6065574 40.9836066,83.6065574 L50.8196721,83.6065574 C51.725057,83.6065574 52.4590164,82.872598 52.4590164,81.9672131 L52.4590164,73.7704918 L59.0163934,73.7704918 L59.0163934,96.7213115 Z" id="Shape" fill="#000000"></path>
                <polygon id="Path" fill="#000000" points="52.4590164 90.1639344 55.7377049 90.1639344 55.7377049 93.442623 52.4590164 93.442623"></polygon>
                <polygon id="Path" fill="#000000" points="22.9508197 63.9344262 26.2295082 63.9344262 26.2295082 67.2131148 22.9508197 67.2131148"></polygon>
                <path d="M96.3366803,21.2655738 C96.4626058,21.2961341 96.5917308,21.3115438 96.7213115,21.3114754 C97.3058982,21.3110256 97.8462768,21.000187 98.1405738,20.495082 C98.2894667,20.2329943 98.3654594,19.9358163 98.3608701,19.6344262 L98.3608701,13.1147541 C98.3608701,12.3575827 97.8419783,11.6989628 97.1059426,11.5213115 L49.564959,0.0459016393 C49.3121988,-0.0153726911 49.048457,-0.0153726911 48.7956967,0.0459016393 L1.25471311,11.5213115 C0.51867739,11.6989628 -0.000227225285,12.3575827 -0.000227225285,13.1147541 L-0.000227225285,19.6256148 C-0.00560295181,19.9688767 0.0925285767,20.3058378 0.281557377,20.592418 C0.665638253,21.1572379 1.35926272,21.4253034 2.02336066,21.2655738 L4.91803279,20.5670082 L4.91803279,40.9836066 L8.19672131,40.9836066 L8.19672131,19.7756148 L49.1803279,9.8829918 L90.1639344,19.7756148 L90.1639344,96.7213115 L80.3278689,96.7213115 L80.3278689,32.7868852 C80.3278689,31.8815004 79.5939094,31.147541 78.6885246,31.147541 L19.6721311,31.147541 C18.7667463,31.147541 18.0327869,31.8815004 18.0327869,32.7868852 L18.0327869,39.3442623 C18.0327869,40.2496471 18.7667463,40.9836066 19.6721311,40.9836066 L77.0491803,40.9836066 L77.0491803,44.2622951 L36.0655738,44.2622951 L36.0655738,47.5409836 L77.0491803,47.5409836 L77.0491803,50.8196721 L36.0655738,50.8196721 L36.0655738,54.0983607 L77.0491803,54.0983607 L77.0491803,57.3770492 L36.0655738,57.3770492 L36.0655738,60.6557377 L77.0491803,60.6557377 L77.0491803,96.7213115 L65.5737705,96.7213115 L65.5737705,100 L98.3608701,100 L98.3608701,96.7213115 L93.442623,96.7213115 L93.442623,20.5670082 L96.3366803,21.2655738 Z M21.3114754,37.704918 L21.3114754,34.4262295 L77.0491803,34.4262295 L77.0491803,37.704918 L21.3114754,37.704918 Z M49.1803279,6.55737705 C49.0507474,6.55731255 48.9216229,6.5727222 48.7956967,6.60327869 L3.27868852,17.589959 L3.27868852,14.4057377 L49.1803279,3.32581967 L95.0819672,14.4057377 L95.0819672,17.5901639 L49.564959,6.60327869 C49.4390329,6.5727222 49.3099083,6.55731255 49.1803279,6.55737705 Z" id="Shape" fill="#000000"></path>
                <path d="M52.4590164,26.2295082 C55.1751709,26.2295082 57.3770491,24.0276299 57.3770491,21.3114754 C57.3770491,18.5953209 55.1751709,16.3934426 52.4590164,16.3934426 L45.9016393,16.3934426 C43.1854848,16.3934426 40.9836066,18.5953209 40.9836066,21.3114754 C40.9836066,24.0276299 43.1854848,26.2295082 45.9016393,26.2295082 L52.4590164,26.2295082 Z M44.2622951,21.3114754 C44.2633115,20.4065119 44.9966758,19.6731475 45.9016393,19.6721311 L52.4590164,19.6721311 C53.3644012,19.6721311 54.0983607,20.4060906 54.0983607,21.3114754 C54.0983607,22.2168602 53.3644012,22.9508197 52.4590164,22.9508197 L45.9016393,22.9508197 C44.9966758,22.9498033 44.2633115,22.2164389 44.2622951,21.3114754 L44.2622951,21.3114754 Z" id="Shape" fill="#000000"></path>
            </g>
        </g>
    </g>
</svg>